<svg width="1477" height="923" viewBox="0 0 1477 923" fill="none" xmlns="http://www.w3.org/2000/svg">
<path d="M1104.79 598.276C1105.04 598.287 1105.29 598.222 1105.5 598.088C1105.71 597.955 1105.87 597.76 1105.97 597.53C1106.06 597.3 1106.09 597.045 1106.03 596.802C1105.98 596.558 1105.85 596.337 1105.67 596.167L1105.59 595.836L1105.62 595.756C1105.87 595.163 1106.29 594.658 1106.83 594.303C1107.37 593.949 1108 593.761 1108.64 593.763C1109.28 593.766 1109.91 593.958 1110.45 594.317C1110.98 594.675 1111.4 595.184 1111.65 595.779C1112.63 598.152 1113.89 600.53 1114.2 603.04C1114.33 604.149 1114.27 605.273 1114.03 606.363C1116.34 601.314 1117.54 595.826 1117.55 590.272C1117.55 588.878 1117.47 587.485 1117.32 586.1C1117.19 584.964 1117.01 583.837 1116.78 582.717C1115.54 576.644 1112.88 570.951 1109.01 566.106C1107.14 565.085 1105.63 563.514 1104.67 561.606C1104.33 560.92 1104.09 560.187 1103.95 559.432C1104.36 558.349 1104.58 557.203 1104.59 556.046C1104.88 555.599 1105.41 555.377 1105.73 554.941C1107.33 552.774 1109.53 553.152 1110.68 556.098C1113.14 557.337 1113.16 559.393 1111.65 561.37C1110.7 562.628 1110.56 564.33 1109.72 565.677C1109.81 565.788 1109.9 565.895 1109.99 566.006C1111.57 568.04 1112.95 570.225 1114.1 572.529C1113.82 569.948 1114.16 567.338 1115.08 564.912C1116.02 562.651 1117.78 560.748 1119.32 558.793C1119.73 558.268 1120.29 557.877 1120.92 557.667C1121.55 557.458 1122.23 557.441 1122.87 557.617C1123.51 557.794 1124.09 558.158 1124.52 558.661C1124.96 559.164 1125.23 559.786 1125.32 560.446L1125.33 560.533C1125.1 560.662 1124.87 560.8 1124.65 560.945C1124.37 561.13 1124.16 561.394 1124.04 561.702C1123.91 562.011 1123.89 562.349 1123.96 562.674C1124.03 562.999 1124.2 563.294 1124.44 563.521C1124.68 563.748 1124.99 563.897 1125.32 563.948L1125.35 563.953C1125.27 564.781 1125.12 565.602 1124.92 566.408C1126.9 574.081 1122.62 576.876 1116.5 577.001C1116.37 577.071 1116.23 577.14 1116.1 577.206C1117.26 580.497 1117.99 583.926 1118.27 587.405C1118.42 589.458 1118.41 591.52 1118.24 593.571L1118.25 593.498C1118.69 591.217 1119.91 589.159 1121.69 587.672C1124.35 585.494 1128.09 584.692 1130.95 582.942C1131.25 582.746 1131.61 582.642 1131.97 582.641C1132.33 582.641 1132.68 582.743 1132.99 582.937C1133.29 583.13 1133.54 583.407 1133.69 583.734C1133.84 584.062 1133.9 584.426 1133.85 584.784L1133.84 584.86C1133.41 585.034 1133 585.234 1132.6 585.459C1132.37 585.589 1132.14 585.726 1131.92 585.872C1131.65 586.057 1131.43 586.32 1131.31 586.629C1131.18 586.937 1131.16 587.276 1131.23 587.601C1131.3 587.925 1131.47 588.221 1131.71 588.448C1131.95 588.675 1132.26 588.824 1132.59 588.875L1132.62 588.88L1132.69 588.89C1131.96 590.629 1130.94 592.23 1129.67 593.623C1128.43 600.321 1123.1 600.957 1117.4 599.006H1117.39C1116.77 601.724 1115.86 604.369 1114.69 606.9H1105.03C1105 606.792 1104.97 606.682 1104.93 606.574C1105.83 606.63 1106.73 606.577 1107.61 606.415C1106.89 605.536 1106.17 604.649 1105.46 603.77C1105.44 603.754 1105.43 603.736 1105.41 603.718C1105.05 603.268 1104.68 602.821 1104.32 602.371C1104.3 600.991 1104.46 599.615 1104.79 598.276Z" fill="#F2F2F2"/>
<path d="M864.125 598.276C863.875 598.287 863.629 598.222 863.418 598.088C863.207 597.955 863.043 597.76 862.947 597.53C862.85 597.3 862.827 597.045 862.88 596.802C862.933 596.558 863.06 596.337 863.243 596.167L863.326 595.836L863.293 595.756C863.042 595.163 862.622 594.658 862.084 594.303C861.547 593.949 860.917 593.761 860.273 593.763C859.629 593.766 859.001 593.958 858.466 594.317C857.931 594.675 857.514 595.184 857.268 595.779C856.282 598.152 855.028 600.53 854.719 603.04C854.582 604.149 854.64 605.273 854.888 606.363C852.574 601.314 851.372 595.826 851.364 590.272C851.363 588.878 851.441 587.485 851.596 586.1C851.724 584.964 851.902 583.837 852.129 582.717C853.37 576.644 856.033 570.951 859.901 566.106C861.773 565.085 863.287 563.514 864.239 561.606C864.584 560.92 864.828 560.187 864.963 559.432C864.553 558.349 864.337 557.203 864.326 556.046C864.031 555.599 863.505 555.377 863.183 554.941C861.585 552.774 859.382 553.152 858.233 556.098C855.776 557.337 855.753 559.393 857.26 561.37C858.219 562.628 858.35 564.33 859.192 565.677C859.105 565.788 859.015 565.895 858.928 566.006C857.346 568.04 855.967 570.225 854.811 572.529C855.092 569.948 854.757 567.338 853.832 564.912C852.895 562.651 851.139 560.748 849.592 558.793C849.183 558.268 848.628 557.877 847.996 557.667C847.364 557.458 846.684 557.441 846.043 557.618C845.401 557.794 844.826 558.158 844.391 558.661C843.956 559.164 843.68 559.786 843.597 560.446L843.588 560.533C843.818 560.662 844.043 560.8 844.263 560.945C844.539 561.13 844.753 561.394 844.877 561.702C845.001 562.011 845.029 562.349 844.957 562.674C844.885 562.999 844.717 563.294 844.474 563.521C844.232 563.748 843.926 563.897 843.598 563.948L843.564 563.953C843.646 564.781 843.79 565.602 843.997 566.408C842.012 574.081 846.296 576.876 852.413 577.001C852.548 577.071 852.679 577.14 852.814 577.206C851.653 580.497 850.925 583.926 850.647 587.405C850.49 589.458 850.499 591.52 850.675 593.571L850.665 593.498C850.221 591.217 849.005 589.159 847.22 587.672C844.569 585.494 840.824 584.692 837.964 582.942C837.66 582.746 837.306 582.642 836.945 582.641C836.584 582.641 836.23 582.743 835.925 582.937C835.62 583.13 835.377 583.407 835.225 583.734C835.072 584.062 835.016 584.426 835.063 584.784L835.075 584.86C835.501 585.034 835.916 585.234 836.318 585.459C836.548 585.589 836.772 585.726 836.993 585.872C837.269 586.057 837.483 586.32 837.607 586.629C837.731 586.937 837.759 587.276 837.687 587.601C837.615 587.925 837.447 588.221 837.204 588.448C836.961 588.675 836.656 588.824 836.327 588.875L836.294 588.88L836.224 588.89C836.953 590.629 837.975 592.23 839.247 593.623C840.487 600.321 845.816 600.957 851.516 599.006H851.52C852.145 601.724 853.051 604.369 854.224 606.9H863.883C863.917 606.792 863.948 606.682 863.98 606.574C863.086 606.63 862.188 606.577 861.307 606.415C862.024 605.536 862.74 604.649 863.457 603.77C863.473 603.754 863.488 603.736 863.502 603.718C863.865 603.268 864.232 602.821 864.596 602.371C864.615 600.991 864.457 599.615 864.125 598.276Z" fill="#F2F2F2"/>
<path d="M1010.11 79.2674C1012.06 75.3329 1015.18 72.0663 1017.09 68.1103C1019.01 64.1545 1019.38 58.8598 1016.19 55.8319C1013.49 53.2609 1009.26 53.2249 1006.03 51.3627C997.792 46.6183 997.801 31.5489 988.388 30.2469C983.81 29.6137 979.668 33.0466 976.901 36.7479C974.135 40.4492 971.93 44.7683 968.093 47.3434C963.749 50.2585 958.134 50.3853 953.31 52.41C944.062 56.2921 939.214 66.2745 935.16 75.4484C932.549 81.3583 929.877 87.7326 931.089 94.0791C928.455 95.718 929.629 100.126 932.258 101.772C934.887 103.419 938.189 103.382 941.208 104.095C947.553 105.594 952.748 110.645 955.211 116.681C957.131 121.386 957.523 126.552 957.893 131.62C958.536 140.414 959.179 149.208 959.821 158.002C960.107 161.914 960.483 166.072 962.864 169.189C965.245 172.306 970.402 173.613 973.079 170.745C975.638 168.005 974.485 163.667 974.434 159.918C974.382 156.169 977.77 151.502 980.966 153.463L982.092 150.906C989.39 148.293 995.781 143.632 1000.5 137.481C1005.22 131.33 1008.06 123.95 1008.69 116.224C1009.51 103.78 1004.56 90.4367 1010.11 79.2674Z" fill="#E6E6E6"/>
<path d="M1017.56 158.179C1018.27 157.515 1018.77 156.663 1019.01 155.723C1019.24 154.784 1019.21 153.797 1018.9 152.878C1018.59 151.959 1018.03 151.146 1017.28 150.537C1016.52 149.927 1015.61 149.545 1014.65 149.437L1014.66 149.859C1013.29 150.661 1011.72 151.073 1010.13 151.05C1008.55 151.025 1006.97 151.274 1005.47 151.788C1004.72 152.059 1004.08 152.55 1003.62 153.195C1003.16 153.84 1002.9 154.61 1002.89 155.403C1002.97 156.011 1003.2 156.589 1003.56 157.088C1003.92 157.587 1004.39 157.992 1004.94 158.268C1006.04 158.811 1007.23 159.169 1008.44 159.331C1011.58 159.92 1015.24 160.367 1017.56 158.179Z" fill="#E6E6E6"/>
<path d="M1078.68 79.4757C1079.99 78.583 1081.11 77.429 1081.95 76.0859C1082.36 75.4063 1082.56 74.6186 1082.51 73.8262C1082.47 73.0337 1082.18 72.2736 1081.7 71.6455C1080.71 70.7881 1079.44 70.3287 1078.13 70.3566C1074.58 70.0914 1071.01 70.5123 1067.62 71.5965C1071.1 74.6831 1074.58 77.7697 1078.07 80.8564L1078.68 79.4757Z" fill="#E6E6E6"/>
<path d="M1061.26 87.5034C1062.67 89.0577 1062.22 91.4686 1061.82 93.5278C1061.42 95.5869 1061.37 98.1599 1063.14 99.2833C1064.68 100.257 1066.83 99.4624 1067.95 98.0328C1068.96 96.5081 1069.57 94.7589 1069.73 92.9409C1070.28 90.2987 1070.53 87.6023 1070.48 84.9037C1070.41 82.1849 1069.45 79.5635 1067.75 77.4438C1066.54 76.0652 1064.93 75.0997 1063.14 74.6825C1061.36 74.2653 1059.48 74.4174 1057.79 75.1175L1059.41 75.0377C1058.23 76.5485 1057.34 78.2607 1056.77 80.0908C1056.5 81.0101 1056.49 81.9851 1056.72 82.9143C1056.95 83.8435 1057.43 84.6932 1058.11 85.375C1059.07 86.2106 1060.4 86.5601 1061.26 87.5034Z" fill="#E6E6E6"/>
<path d="M1140.68 61.4357L1140.97 60.5494C1139.76 61.2458 1138.83 62.3344 1138.34 63.633C1137.84 64.9317 1137.8 66.3616 1138.24 67.6834C1139.16 66.9533 1139.88 65.9894 1140.31 64.8912C1140.73 63.793 1140.86 62.6002 1140.68 61.4357Z" fill="#E6E6E6"/>
<path d="M1125.03 74.1213C1126.57 73.2534 1127.87 72.0386 1128.85 70.5741C1129.83 69.1097 1130.45 67.4363 1130.67 65.6883C1130.83 64.6014 1130.71 63.4899 1130.3 62.4677C1130.09 61.9601 1129.76 61.5118 1129.34 61.1626C1128.92 60.8134 1128.42 60.5742 1127.88 60.4661L1127.22 61.4978C1126.28 60.6888 1124.7 61.5208 1124.31 62.6964C1124.05 63.917 1124.16 65.1855 1124.61 66.3468C1125.07 67.5152 1125.05 68.8142 1124.56 69.9677C1124.03 70.646 1123.43 71.2703 1122.78 71.8314C1122.46 72.1211 1122.26 72.5124 1122.19 72.9384C1122.13 73.3644 1122.22 73.7986 1122.44 74.1668C1123.06 74.8714 1124.21 74.5757 1125.03 74.1213Z" fill="#E6E6E6"/>
<path d="M1118.36 68.3579C1118.92 67.3482 1119.19 66.2007 1119.13 65.0472L1117.69 64.5977C1116.78 64.9691 1115.96 65.5569 1115.32 66.3108C1115.13 66.5056 1114.98 66.7409 1114.89 66.9999C1114.8 67.2589 1114.76 67.5351 1114.79 67.8089C1114.81 68.0826 1114.9 68.3471 1115.04 68.5834C1115.18 68.8197 1115.37 69.0219 1115.6 69.1756C1115.83 69.3293 1116.09 69.4306 1116.36 69.4724C1116.63 69.5141 1116.91 69.4953 1117.18 69.4171C1117.44 69.339 1117.68 69.2035 1117.89 69.0204C1118.09 68.8373 1118.25 68.6111 1118.36 68.3579Z" fill="#E6E6E6"/>
<path d="M1188.43 61.1033C1188.56 61.2118 1188.69 61.3234 1188.82 61.433C1188.93 61.409 1189.04 61.3659 1189.16 61.3517L1188.43 61.1033Z" fill="#E6E6E6"/>
<path d="M1186.13 73.6839C1187.45 72.6192 1188.76 71.5546 1190.08 70.4899C1190.78 69.9952 1191.37 69.3687 1191.83 68.6457C1192.15 67.9612 1192.28 67.2084 1192.23 66.4574C1192.17 65.7065 1191.93 64.9818 1191.52 64.351C1190.79 63.2328 1189.87 62.2462 1188.82 61.433C1187.65 61.7081 1186.63 62.3999 1185.95 63.3774C1185.26 64.3549 1184.96 65.5502 1185.09 66.737C1185.33 68.2465 1186.28 69.8608 1185.5 71.1785C1185.2 71.6916 1184.68 72.0409 1184.34 72.5241C1183.99 73.0072 1183.88 73.7767 1184.35 74.1319C1184.88 74.5264 1185.62 74.0994 1186.13 73.6839Z" fill="#E6E6E6"/>
<path d="M1189.01 80.2014C1189.5 80.2276 1189.99 80.1483 1190.44 79.9688C1190.9 79.7893 1191.31 79.5138 1191.65 79.161C1193.41 77.7194 1194.95 76.0284 1196.22 74.1416C1193.26 75.0796 1190.3 76.0176 1187.34 76.9556L1188.26 78.0353C1187.44 78.5705 1188.05 80.0171 1189.01 80.2014Z" fill="#E6E6E6"/>
<path d="M1197.31 86.2968C1197.49 86.7587 1197.82 87.1486 1198.24 87.4071C1198.66 87.6655 1199.16 87.7782 1199.65 87.7279C1200.14 87.6624 1200.62 87.49 1201.03 87.2228C1201.45 86.9555 1201.8 86.6 1202.07 86.1812C1202.52 85.5174 1202.78 84.7454 1202.84 83.945C1202.89 83.1447 1202.73 82.345 1202.36 81.6288C1202 80.9125 1201.46 80.3057 1200.78 79.871C1200.11 79.4364 1199.33 79.1897 1198.53 79.1565L1199.35 80.4056C1199.56 82.5378 1196.66 84.256 1197.31 86.2968Z" fill="#E6E6E6"/>
<path d="M1254.82 109.649C1255.62 110.247 1256.6 110.569 1257.6 110.566C1258.59 110.564 1259.57 110.238 1260.36 109.636C1260.88 109.194 1261.3 108.65 1261.6 108.038C1261.9 107.426 1262.06 106.759 1262.09 106.079C1262.12 105.399 1262.01 104.721 1261.76 104.087C1261.51 103.452 1261.14 102.876 1260.66 102.393L1259.15 103.238C1258.31 102.698 1257.29 102.506 1256.31 102.7C1255.34 102.894 1254.47 103.46 1253.9 104.279C1253.39 105.137 1253.2 106.149 1253.37 107.134C1253.54 108.118 1254.06 109.01 1254.82 109.649Z" fill="#E6E6E6"/>
<path d="M1272.41 111.64C1273.15 111.426 1273.82 111.027 1274.35 110.481C1274.89 109.934 1275.28 109.258 1275.48 108.518L1272.54 108.132C1271.72 107.514 1270.77 107.098 1269.76 106.918C1269.26 106.842 1268.74 106.943 1268.3 107.202C1267.86 107.462 1267.52 107.865 1267.34 108.345C1267.28 108.752 1267.32 109.169 1267.47 109.556C1267.61 109.942 1267.85 110.285 1268.17 110.552C1268.72 111.082 1269.4 111.46 1270.15 111.65C1270.89 111.841 1271.67 111.837 1272.41 111.64Z" fill="#E6E6E6"/>
<path d="M1260.27 117.519C1260.32 117.997 1260.51 118.451 1260.81 118.827C1261.11 119.203 1261.51 119.486 1261.96 119.643C1262.46 119.878 1263.02 119.959 1263.56 119.875C1264.1 119.791 1264.61 119.546 1265.01 119.17C1265.19 118.97 1265.32 118.73 1265.38 118.471C1265.45 118.211 1265.45 117.94 1265.39 117.679C1265.33 117.418 1265.21 117.175 1265.04 116.97C1264.87 116.765 1264.65 116.605 1264.4 116.501L1262.19 116.1C1261.34 115.659 1260.25 116.56 1260.27 117.519Z" fill="#E6E6E6"/>
<path d="M1132.32 133.023L1130.62 131.465C1131.07 132.098 1131.65 132.628 1132.32 133.023Z" fill="#E6E6E6"/>
<path d="M1119.29 123.847C1120.34 128.726 1125.59 132.701 1130.37 131.235L1130.62 131.465C1129.1 129.386 1128.84 126.31 1129.2 123.635C1129.85 119.051 1131.66 114.706 1134.44 111.003C1137.22 107.299 1140.88 104.355 1145.1 102.442C1146.26 102.081 1147.29 101.408 1148.09 100.497C1148.77 99.5029 1148.51 97.7978 1147.34 97.5169C1146.7 97.4442 1146.06 97.5929 1145.52 97.9379L1136.66 102.302C1132.18 104.506 1127.61 106.773 1124.09 110.314C1120.58 113.855 1118.24 118.967 1119.29 123.847Z" fill="#E6E6E6"/>
<path d="M976.168 291.629C967.907 285.715 958.859 280.987 949.287 277.582C943.404 275.49 937.082 273.895 930.952 275.082C927.591 275.777 924.441 277.256 921.758 279.398C919.075 281.539 916.935 284.283 915.512 287.407C914.141 290.554 913.497 293.969 913.626 297.398C913.755 300.828 914.655 304.185 916.259 307.219C919.086 312.516 923.981 316.735 925.618 322.512C926.721 326.406 926.198 330.553 925.667 334.566C924.582 342.766 923.497 350.966 922.412 359.167C921.424 366.633 920.461 374.402 922.825 381.553C925.188 388.704 931.934 395.007 939.427 394.247L940.911 394.136C935.955 390.765 934.566 383.788 936.042 377.978C937.517 372.169 941.263 367.243 944.92 362.494C955.773 348.401 966.626 334.309 977.478 320.217C981.869 314.515 986.513 307.468 984.172 300.663C982.841 296.795 979.494 294.011 976.168 291.629Z" fill="#E6E6E6"/>
<path d="M902.207 256.004C901.108 255.632 899.947 256.46 899.3 257.423C898.778 258.459 898.164 259.445 897.467 260.371C895.776 262.114 892.695 261.768 890.872 260.164C889.048 258.561 888.258 256.082 887.904 253.68C887.48 250.798 887.663 247.582 889.565 245.376C891.524 243.104 894.742 242.495 897.704 242.023C900.763 241.536 904.19 241.129 906.697 242.95C908.275 244.097 909.195 245.947 910.658 247.239C912.12 248.531 914.721 249.02 915.822 247.409C916.11 246.838 916.256 246.206 916.247 245.566C916.237 244.927 916.074 244.299 915.769 243.736C915.151 242.616 914.778 241.376 914.678 240.099C914.751 238.328 916.174 236.921 917.629 235.908C919.084 234.896 920.727 234.023 921.682 232.529C922.856 230.692 922.731 228.325 923.46 226.27C925.223 221.296 931.515 219.083 933.348 214.134C933.79 213.093 933.84 211.928 933.488 210.853C932.721 208.882 930.647 209.269 930.52 206.859C930.398 204.555 932.321 202.295 934.274 201.332C936.967 200.005 940.107 200.113 943.108 200.032C946.109 199.951 949.343 199.552 951.545 197.512C952.258 196.777 952.808 195.9 953.158 194.938C953.509 193.976 953.652 192.951 953.579 191.93C953.506 190.909 953.219 189.914 952.735 189.012C952.251 188.11 951.582 187.32 950.772 186.694C949.131 185.56 947.056 185.166 945.459 183.971C943.47 182.483 942.529 180.004 940.979 178.061C939.691 176.583 938.216 175.277 936.592 174.177C935.263 173.19 933.933 172.204 932.604 171.218C930.201 169.435 927.7 167.606 924.776 166.971C921.852 166.335 918.37 167.234 916.905 169.844C916.328 171.007 916.012 172.283 915.981 173.581C915.848 176.637 915.975 179.7 916.362 182.735C916.603 185.178 916.845 187.62 917.086 190.063C917.302 192.253 917.07 195.141 914.944 195.709C910.228 196.97 911.82 189.997 910.774 187.86C909.172 184.59 901.816 183.02 898.672 181.657C896.708 180.806 894.635 179.867 893.449 178.085C891.973 175.867 892.276 172.848 893.434 170.449C894.591 168.049 896.477 166.096 898.19 164.056C899.936 161.977 901.527 159.772 903.115 157.569C904.957 155.015 906.799 152.46 908.642 149.905C911.004 146.629 913.488 142.63 912.146 138.82C911.855 138.311 911.42 137.898 910.896 137.634C910.372 137.371 909.782 137.267 909.199 137.338C908.616 137.408 908.067 137.648 907.621 138.029C907.174 138.41 906.85 138.914 906.689 139.478C906.1 141.535 907.67 144.161 906.169 145.686C905.654 146.1 905.011 146.32 904.351 146.308C903.69 146.295 903.056 146.051 902.557 145.618C901.585 144.72 900.845 143.6 900.399 142.354C898.58 138.313 896.808 134.246 894.941 130.226C894.351 128.956 893.735 126.78 891.947 126.994C890.394 127.18 889.556 129.443 889.609 130.756C889.688 132.667 890.744 134.375 891.552 136.109C892.359 137.844 892.924 139.926 892.037 141.621C890.915 143.767 888.072 144.249 885.651 144.178C881.088 144.04 876.617 142.86 872.579 140.729C872.474 142.972 872.368 145.215 872.263 147.458C869.049 146.113 865.836 144.768 862.623 143.423C861.999 143.162 861.374 142.9 860.75 142.639C858.04 141.504 855.326 140.369 852.535 139.448C850.951 138.925 849.345 138.472 847.739 138.019C846.763 137.744 845.787 137.469 844.811 137.194C842.885 136.512 840.842 136.22 838.802 136.337C836.659 136.606 834.747 137.757 832.765 138.618C828.343 140.537 822.623 138.606 817.884 138.572C816.004 135.828 813.466 133.598 810.502 132.088C807.538 130.578 804.243 129.835 800.918 129.927C797.593 130.019 794.344 130.943 791.468 132.615C788.592 134.287 786.182 136.654 784.457 139.498C783.623 140.939 782.881 142.431 782.235 143.965C781.592 145.406 780.949 146.847 780.306 148.288C779.363 150.402 778.398 152.629 778.584 154.937C778.769 157.244 780.538 159.601 782.853 159.58C777.395 162.051 776.259 170.699 780.894 174.495C782.177 175.547 783.751 176.234 784.906 177.426C785.779 178.326 786.363 179.466 786.583 180.701C786.803 181.935 786.649 183.208 786.141 184.354C785.633 185.5 784.794 186.469 783.732 187.135C782.67 187.802 781.433 188.135 780.179 188.093C783.413 189.343 786.975 189.459 790.283 188.423C793.592 187.387 796.451 185.259 798.394 182.388C800.375 179.286 801.236 175.409 803.932 172.902C807.502 169.582 813.399 169.84 817.517 172.45C821.634 175.061 824.239 179.507 826.031 184.041C828.379 189.983 829.882 196.773 834.884 200.748C837.303 202.67 840.366 203.751 842.504 205.981C845.548 209.157 846.075 213.95 846.006 218.349C845.938 222.748 845.464 227.312 847.066 231.409C848.669 235.507 853.263 238.876 857.382 237.332C856.202 240.833 856.238 244.63 857.485 248.108C858.731 251.587 861.115 254.542 864.251 256.497C863.5 251.842 862.75 247.187 861.999 242.532C865.74 243.585 868.164 247.213 869.565 250.838C870.965 254.463 871.705 258.383 873.734 261.697C876.93 266.915 882.717 269.164 888.605 269.144C894.965 269.123 897.379 266.09 901.57 261.625C902.413 260.863 903.052 259.903 903.43 258.832C903.601 258.293 903.572 257.709 903.347 257.19C903.122 256.67 902.717 256.249 902.207 256.004Z" fill="#E6E6E6"/>
<path d="M920.215 255.773C916.661 255.214 913.106 254.655 909.551 254.096C911.414 255.217 913.278 256.337 915.141 257.457C916.695 258.492 918.385 259.306 920.162 259.876C921.054 260.157 921.993 260.251 922.922 260.153C923.851 260.055 924.751 259.767 925.564 259.308L925.109 258.438C924.392 256.625 922.141 256.075 920.215 255.773Z" fill="#E6E6E6"/>
<path d="M917.8 275.532L917.825 275.471C917.61 275.114 917.293 274.83 916.915 274.655C916.537 274.48 916.116 274.422 915.705 274.488C914.886 274.635 914.049 274.648 913.226 274.529C912.703 274.324 912.236 273.998 911.866 273.576C911.495 273.154 911.23 272.65 911.094 272.106C910.741 271.043 910.636 269.905 910.234 268.86C909.943 268.033 909.43 267.302 908.751 266.748C908.071 266.194 907.252 265.838 906.384 265.719C905.512 265.649 904.648 265.925 903.979 266.487C903.309 267.049 902.887 267.852 902.805 268.723C902.874 269.619 903.158 270.485 903.635 271.247C904.018 271.985 904.402 272.722 904.785 273.46C905.108 274.121 905.48 274.757 905.897 275.363C906.576 276.298 907.464 277.062 908.489 277.594C909.515 278.126 910.651 278.412 911.806 278.429C912.962 278.445 914.105 278.192 915.145 277.689C916.186 277.186 917.095 276.448 917.8 275.532Z" fill="#E6E6E6"/>
<path d="M897.039 86.3576C899.746 87.9534 903.135 89.0533 904.421 91.9203L905.163 92.16C904.354 93.1656 903.545 94.1713 902.735 95.177C901.735 96.4198 900.683 97.8045 900.707 99.3996C900.739 101.596 902.852 103.254 904.987 103.772C907.266 104.24 909.637 103.846 911.641 102.665C913.645 101.484 915.139 99.6 915.832 97.3795C916.086 96.4534 916.191 95.4929 916.414 94.5589C917.063 92.3436 918.042 90.239 919.319 88.3161C926.507 76.2234 933.695 64.1308 940.883 52.0381C941.778 50.5321 942.701 48.7306 942.028 47.1131C941.669 46.429 941.113 45.8681 940.432 45.5027C939.751 45.1373 938.976 44.9842 938.208 45.063C936.673 45.2493 935.194 45.747 933.859 46.5256C933.266 45.4839 932.429 44.6016 931.42 43.9547C930.41 43.3077 929.259 42.9153 928.065 42.8113C925.677 42.627 923.275 42.8362 920.955 43.4305C915.714 44.2214 910.66 45.9577 906.039 48.5549C903.511 49.8329 900.729 51.4112 899.995 54.1473C899.093 57.5129 902 60.943 905.348 61.9102C908.695 62.8775 912.268 62.0652 915.656 61.251C916.039 62.8934 915.88 64.6157 915.202 66.1597C914.523 67.7038 913.363 68.9864 911.894 69.8154C910.426 70.6444 908.728 70.9751 907.055 70.758C905.383 70.5409 903.826 69.7876 902.618 68.611C900.189 66.2463 899 62.1413 895.666 61.531C892.342 60.9226 889.7 64.4676 888.966 67.766C888.249 71.3185 888.638 75.0056 890.081 78.33C891.525 81.6545 893.953 84.4563 897.039 86.3576Z" fill="#E6E6E6"/>
<path d="M938.727 144.546C937.127 140.034 935.023 135.717 932.456 131.677C930.51 128.482 928.109 125.588 925.328 123.086C922.786 120.891 919.864 119.18 916.706 118.036C913.641 116.928 910.229 116.38 907.13 117.391C904.031 118.401 901.395 121.283 901.458 124.541C901.528 128.144 904.68 130.962 907.966 132.443C911.251 133.923 914.906 134.568 918.006 136.406C920.114 137.684 921.875 139.46 923.136 141.579C924.396 143.697 925.117 146.093 925.234 148.555L926.015 149.846C924.246 150.432 922.597 151.33 921.145 152.498C920.426 153.091 919.876 153.864 919.551 154.738C919.226 155.612 919.138 156.556 919.295 157.475C919.837 159.657 922.064 160.909 924.079 161.907C927.801 163.751 931.524 165.594 935.246 167.438C933.351 161.786 939.556 156.527 939.899 150.576C939.912 148.508 939.514 146.458 938.727 144.546Z" fill="#E6E6E6"/>
<path d="M845.13 129.287C847.388 131.04 850.86 130.22 852.928 128.246C854.997 126.273 856.004 123.465 856.944 120.764C856.601 123.437 856.633 126.145 857.041 128.808C857.253 130.14 857.739 131.414 858.469 132.548C859.198 133.682 860.156 134.653 861.28 135.398C862.3 135.958 863.401 136.358 864.543 136.586C869.85 137.794 875.397 137.397 880.48 135.447L880.525 133.709C877.972 134 876.04 131.2 875.872 128.636C875.703 126.072 876.634 123.558 876.715 120.989C876.797 118.421 875.559 115.42 873.031 114.963C873.473 115.852 873.635 116.855 873.493 117.837C873.352 118.82 872.915 119.737 872.24 120.465C871.565 121.193 870.684 121.699 869.715 121.914C868.745 122.129 867.734 122.044 866.814 121.67C863.887 120.48 862.823 116.915 860.562 114.709C859.164 113.465 857.43 112.663 855.578 112.403C853.726 112.142 851.838 112.435 850.151 113.244C848.486 114.094 847.026 115.295 845.87 116.764C844.715 118.233 843.892 119.936 843.46 121.754C842.773 124.392 842.976 127.614 845.13 129.287Z" fill="#E6E6E6"/>
<path d="M914.819 110.986L914.924 110.816C914.293 108.996 912.339 107.929 910.432 107.658C908.51 107.531 906.579 107.595 904.669 107.848C902.741 108.098 900.787 107.667 899.143 106.631C897.83 105.649 897.082 104.105 896.032 102.846C894.983 101.587 893.284 100.552 891.76 101.154C890.109 101.806 889.669 104.119 890.47 105.703C891.413 107.223 892.837 108.384 894.515 109.004C900.87 111.921 908.02 112.619 914.819 110.986Z" fill="#E6E6E6"/>
<path d="M893.127 116.443C892.599 116.829 892.241 117.405 892.128 118.05C892.015 118.694 892.156 119.358 892.52 119.901C892.885 120.444 893.446 120.825 894.085 120.964C894.725 121.104 895.393 120.99 895.951 120.648L896.508 121.198C897.249 119.871 897.554 118.095 896.607 116.907C896.186 116.415 895.598 116.095 894.956 116.009C894.313 115.924 893.662 116.078 893.127 116.443Z" fill="#E6E6E6"/>
<path d="M886.611 121.2C886.619 120.727 886.483 120.261 886.222 119.866C885.961 119.471 885.586 119.164 885.147 118.985C884.848 118.934 884.542 118.944 884.246 119.014C883.951 119.084 883.674 119.214 883.43 119.394C883.186 119.574 882.981 119.802 882.828 120.064C882.675 120.326 882.576 120.616 882.537 120.916C882.492 121.529 882.572 122.145 882.774 122.725C882.976 123.306 883.295 123.839 883.712 124.29C883.954 124.654 884.271 124.963 884.641 125.196C885.012 125.428 885.427 125.58 885.86 125.64C886.733 125.669 887.623 124.756 887.269 123.958L885.936 123.932C886.347 123.078 886.576 122.148 886.611 121.2Z" fill="#E6E6E6"/>
<path d="M860.552 107.554C861.041 107.95 861.53 108.347 862.02 108.744C862.868 109.476 863.783 110.127 864.755 110.685C866.453 111.626 868.451 111.871 870.327 111.368C871.253 111.103 872.098 110.611 872.783 109.934C873.469 109.258 873.973 108.42 874.249 107.497C874.834 105.292 873.88 103.003 872.946 100.922C872.732 100.326 872.381 99.7899 871.919 99.3571C871.683 99.1478 871.382 99.0266 871.066 99.0142C870.751 99.0018 870.441 99.0989 870.189 99.2891C870.006 99.5167 869.884 99.7873 869.835 100.075C869.787 100.363 869.812 100.658 869.91 100.934C870.111 101.482 870.203 102.064 870.18 102.647C870.087 103.223 869.483 103.767 868.951 103.529L868.866 105.488C866.325 104.202 864.981 100.78 862.153 100.443C861.519 100.367 860.875 100.467 860.294 100.732C859.712 100.997 859.214 101.416 858.855 101.945C858.495 102.473 858.288 103.09 858.255 103.729C858.222 104.367 858.365 105.002 858.668 105.565C859.159 106.345 859.799 107.021 860.552 107.554Z" fill="#E6E6E6"/>
<path d="M854.499 99.0966C855.087 98.6936 855.552 98.1361 855.843 97.4856C856.134 96.835 856.24 96.1168 856.149 95.41C856.079 95.0676 855.934 94.745 855.724 94.465C855.515 94.185 855.247 93.9545 854.939 93.7899C854.63 93.6254 854.289 93.5308 853.94 93.5129C853.591 93.495 853.243 93.5542 852.919 93.6863C852.193 94.2291 851.683 95.0118 851.48 95.8951C850.81 97.7842 850.14 99.6732 849.471 101.562L850.596 100.743C851.989 100.443 853.313 99.8849 854.499 99.0966Z" fill="#E6E6E6"/>
<path d="M867.543 87.5037C867.744 87.2501 867.887 86.9555 867.962 86.6407C868.037 86.3258 868.042 85.9984 867.977 85.6814C867.911 85.3644 867.777 85.0656 867.584 84.8059C867.391 84.5462 867.143 84.3321 866.858 84.1785L865.451 84.0469C865.131 84.1279 864.835 84.2828 864.585 84.4991C864.336 84.7155 864.141 84.9872 864.016 85.2926C863.89 85.598 863.838 85.9285 863.864 86.2576C863.889 86.5867 863.992 86.9052 864.162 87.1877C864.333 87.4701 864.568 87.7085 864.848 87.8839C865.127 88.0592 865.444 88.1665 865.773 88.1972C866.102 88.228 866.433 88.1812 866.74 88.0608C867.048 87.9403 867.322 87.7495 867.543 87.5037Z" fill="#E6E6E6"/>
<path d="M880.491 89.676C881.804 90.3043 883.466 90.9031 884.609 90.0008C884.947 89.6945 885.199 89.3044 885.339 88.8699C885.478 88.4353 885.501 87.9716 885.404 87.5255C885.199 86.6356 884.803 85.801 884.243 85.0795C882.496 82.571 880.276 80.4275 877.708 78.7692L877.073 79.5942C876.186 81.8972 875.33 84.5857 876.567 86.7212C877.401 88.1607 878.99 88.9579 880.491 89.676Z" fill="#E6E6E6"/>
<path d="M890.274 91.7256L892.73 92.8365C892.489 92.4168 892.123 92.0836 891.682 91.8842C891.241 91.6848 890.749 91.6293 890.274 91.7256Z" fill="#E6E6E6"/>
<path d="M883.656 99.4525L882.496 99.8348C881.509 101.456 881.937 103.53 882.396 105.372C882.686 106.536 883.312 107.969 884.511 107.916C885.677 107.864 886.194 106.45 886.417 105.304C886.767 104.059 886.805 102.747 886.528 101.484C886.37 100.859 885.994 100.311 885.467 99.9383C884.941 99.5658 884.298 99.3935 883.656 99.4525Z" fill="#E6E6E6"/>
<path d="M865.15 93.9949L866.009 94.3407C866.21 94.3119 866.396 94.2176 866.539 94.0723C866.681 93.927 866.771 93.7388 866.796 93.537C866.82 93.3351 866.777 93.1308 866.674 92.9557C866.57 92.7806 866.412 92.6446 866.223 92.5686C866.035 92.4926 865.826 92.481 865.63 92.5355C865.435 92.5901 865.262 92.7077 865.14 92.8702C865.018 93.0327 864.952 93.231 864.954 93.4343C864.956 93.6377 865.025 93.8347 865.15 93.9949Z" fill="#E6E6E6"/>
<path d="M908.439 159.652C908.023 159.661 907.615 159.77 907.25 159.968C906.884 160.167 906.572 160.451 906.338 160.795C906.104 161.139 905.956 161.534 905.906 161.947C905.856 162.36 905.906 162.779 906.051 163.169C906.894 164.985 909.798 164.993 911.088 163.462C911.419 163.027 911.656 162.529 911.784 161.998C911.912 161.467 911.929 160.915 911.833 160.378C911.737 159.84 911.531 159.328 911.227 158.874C910.924 158.42 910.529 158.034 910.069 157.74L908.439 159.652Z" fill="#E6E6E6"/>
<path d="M950.264 202.663C949.927 202.753 949.61 202.909 949.335 203.124C949.059 203.338 948.829 203.605 948.658 203.91C948.487 204.215 948.379 204.551 948.34 204.898C948.302 205.245 948.333 205.596 948.432 205.931L950.843 206.099C951.659 205.689 952.476 205.279 953.292 204.869C953.243 204.523 953.125 204.191 952.945 203.892C952.765 203.592 952.527 203.332 952.244 203.126C951.962 202.921 951.641 202.774 951.301 202.694C950.961 202.614 950.608 202.604 950.264 202.663Z" fill="#E6E6E6"/>
<path d="M940.465 205.645C939.775 206.135 939.221 206.792 938.856 207.555C938.491 208.318 938.325 209.162 938.376 210.006C938.455 210.849 938.799 211.644 939.36 212.278C939.921 212.911 940.668 213.35 941.495 213.53C942.329 213.661 943.182 213.47 943.881 212.996C944.58 212.522 945.073 211.8 945.26 210.977C945.668 208.483 942.988 206.657 942.025 204.321L940.465 205.645Z" fill="#E6E6E6"/>
<path d="M1034.1 189.176C1034.36 191.048 1032.67 192.688 1032.61 194.576C1032.53 196.816 1034.97 198.559 1037.2 198.34C1038.31 198.148 1039.36 197.702 1040.26 197.036C1041.17 196.371 1041.91 195.505 1042.42 194.506L1042.47 194.296C1041.38 193.067 1040.3 191.839 1039.21 190.611C1037.87 189.103 1036.46 187.386 1036.51 185.373C1036.54 184.381 1036.93 183.419 1036.91 182.427C1036.85 181.713 1036.7 181.011 1036.43 180.344C1036.14 179.466 1035.74 178.477 1034.86 178.181C1033.76 177.81 1032.66 178.783 1032.13 179.817C1031.66 180.77 1031.43 181.825 1031.46 182.888C1031.5 183.951 1031.79 184.99 1032.32 185.912C1032.96 186.99 1033.93 187.937 1034.1 189.176Z" fill="#E6E6E6"/>
<path d="M1023.85 195.762C1024.09 195.891 1024.35 195.966 1024.62 195.983C1024.89 196.001 1025.16 195.959 1025.42 195.862C1026.38 195.697 1027.31 195.359 1028.16 194.864C1028.58 194.611 1028.93 194.25 1029.17 193.819C1029.4 193.388 1029.52 192.902 1029.51 192.411C1029.36 191.793 1029.03 191.233 1028.57 190.801C1028.1 190.369 1027.52 190.084 1026.89 189.984C1026.46 189.831 1025.99 189.787 1025.53 189.857C1025.08 189.926 1024.65 190.107 1024.28 190.383C1023.47 191.143 1023.56 192.432 1023.72 193.53L1023.55 193.817C1023.4 194.495 1023.3 195.339 1023.85 195.762Z" fill="#E6E6E6"/>
<path d="M1194.88 275.765C1194.64 275.181 1194.41 274.597 1194.17 274.012C1193.85 274.806 1193.97 275.618 1194.88 275.765Z" fill="#E6E6E6"/>
<path d="M1335.96 152.838C1332.94 149.566 1331.09 147.68 1329.19 143.624C1328.15 141.387 1326.58 139.442 1324.61 137.961C1322.64 136.481 1320.33 135.512 1317.89 135.14C1311.64 134.109 1305.24 135.741 1298.91 135.414C1288.77 134.89 1279.62 129.45 1269.91 126.483C1264.47 124.959 1258.93 123.816 1253.33 123.064C1250.1 122.554 1246.88 122.044 1243.65 121.534C1233.08 119.862 1222.44 118.185 1211.74 118.407C1208.65 118.471 1204.35 117.543 1204.6 114.466C1204.91 110.645 1211.78 111.146 1213.1 107.548C1213.92 105.322 1211.96 102.985 1209.82 101.978C1207.67 100.972 1205.19 100.669 1203.24 99.3176C1201.29 97.9663 1200.22 94.8336 1202.02 93.2792C1197.05 95.8243 1192.09 98.3694 1187.12 100.915C1182.99 103.031 1178.38 105.784 1177.65 110.364C1175.17 111.022 1172.99 112.534 1171.51 114.635C1168.71 114.65 1166.52 117.331 1166.06 120.086C1165.6 122.84 1166.43 125.628 1167.26 128.295C1166.25 126.355 1165.17 124.34 1163.39 123.074C1161.6 121.808 1158.88 121.567 1157.36 123.14C1155.8 124.754 1156.17 127.462 1157.27 129.417C1158.38 131.373 1160.07 132.951 1161.12 134.94C1164.37 141.154 1158.47 149.902 1151.49 149.209C1151.96 142.793 1152.43 136.377 1152.89 129.961C1153.19 127.988 1153.03 125.972 1152.41 124.074C1151.65 122.237 1149.7 120.729 1147.76 121.162C1144.27 121.942 1144.57 127.053 1146.02 130.32C1147.47 133.587 1148.92 138.131 1145.95 140.132C1144.04 141.424 1141.45 140.626 1139.38 139.594C1137.32 138.563 1135.11 137.292 1132.85 137.774C1130.59 138.256 1129.17 141.707 1131.17 142.869C1127.86 142.294 1124.55 141.72 1121.24 141.145C1121.08 142.118 1120.71 143.047 1120.17 143.87C1119.62 144.694 1118.91 145.394 1118.08 145.925C1117.24 146.456 1116.31 146.807 1115.33 146.954C1114.36 147.101 1113.36 147.042 1112.41 146.78C1112.08 145.435 1111.76 144.089 1111.43 142.743C1110.95 142.608 1110.46 142.473 1109.98 142.338C1111.5 142.761 1109.12 149.17 1106.99 154.066C1104.13 153.73 1099.94 153.665 1099.46 152.844C1097.17 148.912 1097.44 139.546 1093.47 137.334C1091.48 136.225 1089.43 135.214 1087.34 134.302C1086.24 133.778 1085.07 133.396 1083.88 133.165C1081.43 132.781 1078.97 133.538 1076.62 134.286C1073.83 135.17 1070.99 136.087 1068.68 137.881C1066.71 139.588 1065.03 141.594 1063.68 143.826C1059.13 150.561 1054.58 157.296 1050.03 164.03C1048.67 165.829 1047.61 167.828 1046.87 169.956C1046.52 171.013 1046.4 172.134 1046.53 173.241C1046.65 174.348 1047.01 175.415 1047.59 176.369C1048.19 177.304 1049.1 178.009 1050.15 178.369C1051.21 178.73 1052.35 178.725 1053.4 178.355C1054.72 177.784 1056.04 176.49 1057.35 177.088C1058.34 177.54 1058.59 178.841 1058.48 179.925C1058.23 180.986 1058.21 182.088 1058.42 183.157C1059.02 184.844 1061.31 185.431 1062.94 184.701C1064.53 183.835 1065.72 182.387 1066.26 180.661C1067.83 176.626 1067.67 172.162 1068.06 167.849C1068.45 163.536 1069.63 158.923 1073.03 156.241C1074.05 155.439 1075.55 154.86 1076.6 155.623C1076.99 155.98 1077.26 156.45 1077.37 156.968C1077.48 157.486 1077.43 158.026 1077.22 158.513C1076.78 159.477 1076.21 160.374 1075.52 161.179C1074.36 162.813 1073.55 164.67 1073.14 166.632C1072.72 168.594 1072.72 170.62 1073.12 172.585L1073.82 173.015C1076.47 172.327 1080.02 173.558 1083.54 174.739C1080.98 175.499 1078.73 177.046 1077.11 179.161C1073.04 184.869 1070.09 190.272 1062.04 190.204C1060.13 190.188 1058.24 189.81 1056.33 189.806C1054.4 189.687 1052.51 190.319 1051.04 191.57C1049.59 192.988 1049.14 195.146 1047.9 196.749C1046.27 198.858 1043.55 199.715 1041.07 200.673C1039.25 201.372 1037.33 202.316 1036.5 204.075C1035.97 205.517 1035.85 207.075 1036.15 208.581C1036.43 211.245 1036.92 214.274 1039.18 215.712C1040.03 216.152 1040.95 216.421 1041.9 216.501C1042.85 216.582 1043.81 216.472 1044.72 216.18C1047.07 215.608 1049.36 214.531 1051.78 214.692C1055.57 214.945 1058.69 218.582 1058.73 222.38C1058.75 224.302 1058.18 226.507 1059.46 227.947C1060.66 229.3 1063.03 229.059 1064.27 227.745C1064.85 227.047 1065.24 226.218 1065.43 225.33C1065.61 224.443 1065.57 223.524 1065.32 222.655C1064.79 220.923 1063.98 219.291 1062.92 217.824C1064.18 217.498 1065.52 217.618 1066.7 218.165C1067.88 218.711 1068.84 219.651 1069.41 220.823C1070.25 222.693 1069.98 224.851 1070.24 226.884C1070.51 228.917 1071.75 231.177 1073.8 231.294C1074.47 231.313 1075.12 231.097 1075.65 230.683C1076.18 230.27 1076.54 229.685 1076.68 229.03C1076.7 227.998 1076.65 226.967 1076.51 225.943C1076.58 224.936 1077.04 223.993 1077.78 223.309C1078.52 222.625 1079.5 222.251 1080.51 222.263C1079.89 223.414 1079.68 224.746 1079.93 226.03C1080.19 227.314 1080.88 228.47 1081.89 229.301C1083.45 230.506 1085.51 230.776 1087.45 231.113C1089.39 231.45 1091.46 231.983 1092.71 233.503C1094.8 236.036 1092.25 237.177 1091.85 239.322C1091.36 241.955 1093.56 245.843 1094.4 248.363C1098.29 253.794 1102.17 259.225 1106.05 264.656C1106.92 265.977 1107.94 267.189 1109.1 268.265C1112.93 271.557 1119.25 271.232 1122.92 267.766C1124.7 265.963 1125.86 263.637 1126.22 261.128C1126.59 258.619 1126.13 256.06 1124.93 253.827C1122.66 249.692 1118.16 247.132 1115.94 242.971C1119.64 246.033 1124.18 247.901 1128.96 248.327C1137.43 250.046 1145.47 253.418 1152.62 258.249C1152.96 265.727 1155.83 272.869 1160.76 278.5C1161.65 272.119 1164.62 266.21 1169.22 261.698C1172.21 258.781 1176.3 256.429 1180.4 257.214C1184.51 257.998 1187.62 263.231 1185.14 266.591C1187.22 266.746 1189.3 266.901 1191.38 267.055C1192.31 269.374 1193.24 271.693 1194.17 274.012C1194.34 273.525 1194.66 273.103 1195.08 272.81C1195.5 272.516 1196.01 272.366 1196.52 272.381C1198.47 272.675 1199.84 274.486 1201.69 275.155C1205.18 276.416 1208.91 272.923 1209.36 269.239C1209.81 265.555 1208.06 261.998 1206.36 258.7C1210.12 259.397 1214 258.982 1217.53 257.505C1221.06 256.029 1224.08 253.556 1226.23 250.389C1228.37 247.221 1229.55 243.498 1229.61 239.673C1229.67 235.848 1228.61 232.088 1226.57 228.854C1230.62 224.603 1235.38 221.097 1240.64 218.495C1245.51 216.089 1250.84 214.438 1255.09 211.064C1259.35 207.69 1262.33 201.831 1260.29 196.801C1258.84 193.248 1255.21 190.836 1254.13 187.156C1252.56 181.83 1257.33 176.32 1262.72 174.989C1268.11 173.659 1273.74 175.294 1279.05 176.917C1278.24 171.452 1284.57 166.329 1289.75 168.27C1291.91 167.392 1294.08 166.515 1296.25 165.638C1293.73 171.175 1288.29 174.699 1284.29 179.277C1280.29 183.855 1277.9 191.31 1282.09 195.725C1288.08 190.294 1294.07 184.863 1300.06 179.432C1306.33 173.751 1312.6 168.07 1318.87 162.389C1318.57 161.509 1318.27 160.63 1317.97 159.751C1323.9 157.499 1330.28 155.636 1335.96 152.838Z" fill="#E6E6E6"/>
<path d="M1024.71 225.935C1024.47 226.283 1024.34 226.698 1024.34 227.122C1024.35 227.547 1024.48 227.96 1024.73 228.306C1025.05 228.58 1025.45 228.732 1025.88 228.738C1026.3 228.744 1026.71 228.602 1027.04 228.337C1027.68 227.788 1028.19 227.092 1028.5 226.309C1028.82 226.911 1029.3 227.403 1029.91 227.717C1030.51 228.032 1031.19 228.154 1031.86 228.067C1033.2 227.864 1034.48 227.334 1035.56 226.522C1036.43 226.016 1037.19 225.355 1037.81 224.571C1038.12 224.177 1038.33 223.715 1038.43 223.225C1038.53 222.734 1038.51 222.227 1038.38 221.744C1038.05 221.004 1037.55 220.355 1036.92 219.857C1035.33 218.393 1033.75 216.928 1032.16 215.463L1031.62 215.302C1031.34 215.005 1031.01 214.767 1030.63 214.603C1030.26 214.439 1029.86 214.352 1029.45 214.348C1029.04 214.343 1028.63 214.421 1028.26 214.578C1027.88 214.734 1027.54 214.964 1027.25 215.256C1026.27 216.358 1026.26 218.005 1026.41 219.475C1026.56 220.945 1026.8 222.512 1026.14 223.837C1025.77 224.596 1025.13 225.198 1024.71 225.935Z" fill="#E6E6E6"/>
<path d="M1116.71 275.965C1110.55 274.593 1104.91 271.486 1100.45 267.011C1096 262.536 1092.92 256.88 1091.58 250.711C1091 247.8 1090.74 244.619 1088.8 242.369C1086.92 240.19 1083.86 239.404 1080.99 239.404C1078.11 239.404 1075.28 240.066 1072.41 240.244C1067.39 240.557 1062.08 239.232 1058.49 235.712C1056.79 234.045 1055.51 231.928 1053.52 230.613C1050.86 228.846 1047.32 228.848 1044.29 229.849C1040.9 230.964 1038.19 234.016 1034.49 233.596C1030.65 233.159 1026.19 231.799 1024.68 236.865C1024.24 238.324 1024.39 239.924 1023.84 241.344C1022.99 243.531 1020.74 244.764 1018.96 246.292C1015.38 249.37 1013.47 254.045 1012.83 258.727C1012.19 263.408 1012.68 268.162 1013.18 272.861C1013.45 275.396 1013.8 278.124 1015.54 279.985C1017.97 282.58 1022.04 282.48 1025.58 282.187C1029.7 281.848 1033.81 281.508 1037.92 281.168C1040.14 280.985 1042.67 280.908 1044.25 282.475C1045.19 283.415 1045.59 284.774 1046.42 285.816C1047.17 286.703 1048.2 287.31 1049.33 287.539C1050.47 287.768 1051.65 287.606 1052.68 287.078C1051.85 288.568 1051.39 290.241 1051.36 291.948C1051.33 293.656 1051.71 295.345 1052.49 296.867C1053.26 298.389 1054.4 299.697 1055.8 300.674C1057.2 301.651 1058.82 302.268 1060.52 302.469L1060.84 302.669C1058.2 307.179 1055.47 312.243 1056.56 317.35C1057.5 321.729 1061.13 325.24 1061.72 329.678C1062.26 333.751 1060.14 337.915 1061.08 341.915C1062.03 345.965 1066.12 348.789 1070.27 349.09C1074.42 349.392 1078.5 347.551 1081.71 344.909C1084.92 342.267 1087.41 338.865 1089.86 335.501C1091.37 333.425 1092.92 331.263 1093.44 328.747C1093.99 326.07 1093.35 323.103 1094.65 320.699C1096.16 317.927 1099.72 316.888 1101.52 314.299C1103.85 310.947 1102.48 306.381 1102.99 302.331C1104.26 292.31 1117 286.063 1116.71 275.965Z" fill="#E6E6E6"/>
<path d="M1114.87 310.179C1114.52 311.744 1113.06 312.775 1111.66 313.562C1110.26 314.35 1108.73 315.145 1108.02 316.581C1107.29 318.053 1107.62 319.806 1108 321.403C1108.8 324.725 1109.73 328.01 1110.8 331.256C1112.89 327.32 1114.71 323.248 1116.25 319.07C1116.9 317.514 1117.31 315.865 1117.44 314.183C1117.51 313.342 1117.4 312.496 1117.11 311.701C1116.83 310.905 1116.38 310.178 1115.8 309.566L1114.87 310.179Z" fill="#E6E6E6"/>
<path d="M1200.56 292.749C1198.81 290.729 1197.06 288.71 1195.31 286.69C1194.11 285.308 1192.75 283.833 1190.94 283.603L1190.19 284.079C1191.71 287.692 1193.22 291.304 1194.74 294.916C1195.28 296.566 1196.22 298.053 1197.49 299.239C1198.85 300.306 1201.05 300.511 1202.18 299.207C1202.55 298.718 1202.78 298.142 1202.85 297.536C1202.92 296.93 1202.83 296.316 1202.59 295.755C1202.1 294.64 1201.41 293.622 1200.56 292.749Z" fill="#E6E6E6"/>
<path d="M1217.51 296.617C1218.18 296.387 1218.78 296.022 1219.29 295.545C1219.81 295.067 1220.21 294.488 1220.49 293.845C1221.03 292.556 1221.39 291.196 1221.55 289.807C1221.85 287.999 1222.15 286.19 1222.45 284.381L1222.06 284.281C1221.68 284.098 1221.24 284.06 1220.84 284.173C1220.43 284.285 1220.08 284.542 1219.85 284.894C1219.41 285.612 1219.07 286.391 1218.86 287.205C1218.75 287.612 1218.55 287.989 1218.27 288.307C1217.99 288.626 1217.65 288.877 1217.26 289.043C1215.86 289.467 1214.53 287.979 1213.06 288.037C1212.47 288.112 1211.92 288.386 1211.5 288.814C1211.09 289.241 1210.83 289.798 1210.77 290.392C1210.68 291.591 1211.02 292.782 1211.73 293.756C1212.98 295.696 1215.3 297.256 1217.51 296.617Z" fill="#E6E6E6"/>
<path d="M1227.19 300.046L1231.22 289.426C1229.59 290.611 1228.33 292.247 1227.62 294.134C1226.9 296.021 1226.75 298.076 1227.19 300.046Z" fill="#E6E6E6"/>
<path d="M1247.77 291.485L1246.95 291.52C1246.59 292.24 1246.39 293.035 1246.39 293.843C1246.38 294.651 1246.56 295.449 1246.91 296.177C1247.62 297.627 1248.66 298.893 1249.95 299.875C1251.94 301.519 1254.21 302.789 1256.66 303.622C1260.24 304.668 1263.95 305.239 1267.69 305.32C1269.82 305.46 1271.96 305.6 1274.09 305.74C1275.11 305.806 1276.42 305.677 1276.71 304.698C1276.94 303.89 1276.25 303.13 1275.61 302.587C1269.96 297.834 1263.11 294.727 1255.82 293.605C1253.05 293.184 1250.11 293.011 1247.77 291.485Z" fill="#E6E6E6"/>
<path d="M1270.55 319.67C1269.02 318.181 1267.48 316.692 1265.95 315.204C1264.45 313.756 1262.22 312.222 1260.51 313.404C1259.52 314.083 1259.22 315.409 1258.38 316.265C1257.88 316.72 1257.26 317.041 1256.6 317.199C1255.94 317.357 1255.25 317.347 1254.59 317.169C1253.28 316.801 1252.04 316.214 1250.92 315.432L1247.11 313.068C1245.8 312.252 1244.48 311.437 1243.17 310.621L1240.2 313.504C1240.33 312.085 1238.44 311.163 1237.13 311.724C1236.51 312.073 1235.97 312.558 1235.56 313.143C1235.15 313.728 1234.88 314.397 1234.77 315.102C1234.55 316.51 1234.17 317.888 1233.63 319.209C1232.13 322.092 1228.47 322.946 1225.25 323.429C1222.04 323.912 1218.39 324.592 1216.67 327.353C1215.23 329.652 1215.66 332.604 1216.14 335.271L1217.96 345.361C1218.04 346.583 1218.53 347.742 1219.35 348.655C1220.94 350.061 1223.41 349.206 1225.35 348.349C1229.42 346.394 1233.78 345.13 1238.26 344.609C1242.78 344.103 1247.32 345.268 1251.04 347.883C1253.35 349.639 1255.11 352.069 1257.55 353.628C1259.23 354.641 1261.12 355.256 1263.08 355.426C1265.04 355.597 1267.01 355.319 1268.84 354.614C1272.51 353.151 1275.55 350.44 1277.43 346.957C1279.09 343.886 1279.92 340.435 1279.85 336.944C1279.77 333.453 1278.79 330.042 1276.99 327.046C1275.16 324.33 1273 321.852 1270.55 319.67Z" fill="#E6E6E6"/>
<path d="M1266.03 360.778C1265.66 361.225 1265.44 361.779 1265.41 362.357C1265.38 362.936 1265.53 363.509 1265.85 363.994C1266.52 364.952 1267.54 365.609 1268.69 365.821C1269.83 366.024 1270.99 366.078 1272.14 365.979L1272.18 365.118C1271.87 363.607 1271.17 362.203 1270.16 361.044C1269.04 359.987 1267.08 359.663 1266.03 360.778Z" fill="#E6E6E6"/>
<path d="M1305.56 361.699L1305.01 361.497C1303.7 363.472 1302.39 365.446 1301.08 367.42C1300.37 368.483 1299.64 369.759 1300.07 370.959C1300.58 372.379 1302.46 372.795 1303.92 372.42C1305.03 372.117 1306.04 371.503 1306.82 370.648C1307.6 369.794 1308.12 368.735 1308.31 367.597C1308.47 366.452 1308.3 365.286 1307.81 364.239C1307.32 363.192 1306.54 362.309 1305.56 361.699Z" fill="#E6E6E6"/>
<path d="M1315.54 355.433L1311.93 352.558C1311.88 353.892 1311.83 355.225 1311.78 356.559L1311.65 356.561C1312.48 357.293 1313.27 358.076 1314 358.906C1314.85 359.625 1316.27 359.954 1316.99 359.111C1317.21 358.809 1317.33 358.45 1317.35 358.079C1317.36 357.708 1317.27 357.341 1317.07 357.024C1316.67 356.396 1316.15 355.855 1315.54 355.433Z" fill="#E6E6E6"/>
<path d="M1250.21 230.353C1248.69 230.306 1247.01 230.214 1245.84 231.174C1245.45 231.52 1245.11 231.915 1244.83 232.35L1244.41 232.931C1243.79 233.743 1243.25 234.613 1242.8 235.529C1242.56 235.958 1242.42 236.433 1242.38 236.922C1242.34 237.411 1242.41 237.902 1242.58 238.363C1242.67 238.583 1242.82 238.779 1243 238.937C1243.18 239.095 1243.4 239.212 1243.63 239.278C1243.86 239.345 1244.1 239.359 1244.34 239.321C1244.58 239.284 1244.8 239.194 1245 239.059C1245.65 238.458 1245.5 237.368 1245.99 236.633C1246.21 236.356 1246.48 236.133 1246.8 235.981C1247.12 235.829 1247.46 235.754 1247.82 235.76C1248.52 235.777 1249.21 235.856 1249.9 235.995C1251.8 236.256 1253.74 235.967 1255.48 235.162C1257.23 234.357 1258.7 233.07 1259.74 231.452C1260.77 229.835 1261.32 227.956 1261.33 226.036C1261.33 224.115 1260.78 222.235 1259.75 220.617L1259.62 220.244C1258.57 220.204 1257.54 220.533 1256.71 221.175C1255.88 221.817 1255.29 222.731 1255.07 223.757C1254.73 225.525 1255.45 227.579 1254.37 229.026C1253.47 230.245 1251.73 230.401 1250.21 230.353Z" fill="#E6E6E6"/>
<path d="M1263.79 211.609L1263.56 211.589C1262.2 211.837 1260.9 212.322 1259.71 213.023C1259.32 213.204 1259.01 213.519 1258.84 213.912C1258.79 214.12 1258.79 214.338 1258.84 214.546C1258.89 214.754 1259 214.945 1259.14 215.102C1259.44 215.414 1259.78 215.673 1260.16 215.87C1260.73 216.249 1261.36 216.529 1262.02 216.7C1262.35 216.782 1262.7 216.78 1263.03 216.694C1263.36 216.609 1263.66 216.443 1263.91 216.211C1264.15 215.888 1264.31 215.518 1264.38 215.126C1264.46 214.735 1264.45 214.331 1264.36 213.944C1264.25 213.148 1264.06 212.366 1263.79 211.609Z" fill="#E6E6E6"/>
<path d="M1240.4 230.804C1240.77 230.223 1241.02 229.582 1241.17 228.912C1241.31 228.391 1241.45 227.871 1241.59 227.35L1240.08 226.431C1239.36 226.807 1238.69 227.282 1238.1 227.843C1237.8 228.125 1237.57 228.465 1237.41 228.842C1237.26 229.218 1237.18 229.623 1237.19 230.031C1237.21 230.438 1237.37 230.826 1237.64 231.132C1237.91 231.438 1238.27 231.644 1238.67 231.716C1239.02 231.726 1239.36 231.648 1239.66 231.488C1239.96 231.328 1240.22 231.092 1240.4 230.804Z" fill="#E6E6E6"/>
<path d="M1075.62 90.1398C1075.02 90.5127 1075.19 91.414 1075.43 92.0758C1075.71 92.8356 1075.99 93.5954 1076.27 94.3551L1076.66 92.8802C1077 92.3082 1077.15 91.6419 1077.09 90.9782C1076.95 90.33 1076.18 89.7896 1075.62 90.1398Z" fill="#E6E6E6"/>
<path d="M1453.28 227H1200.28C1194.19 226.993 1188.34 224.568 1184.03 220.256C1179.72 215.944 1177.29 210.098 1177.28 204V23C1177.29 16.9022 1179.72 11.056 1184.03 6.7442C1188.34 2.43237 1194.19 0.00693705 1200.28 0H1453.28C1459.38 0.00693441 1465.23 2.43237 1469.54 6.7442C1473.85 11.056 1476.28 16.9021 1476.28 23V204C1476.28 210.098 1473.85 215.944 1469.54 220.256C1465.23 224.568 1459.38 226.993 1453.28 227Z" fill="white"/>
<path d="M1453.28 227H1200.28C1194.19 226.993 1188.34 224.568 1184.03 220.256C1179.72 215.944 1177.29 210.098 1177.28 204V23C1177.29 16.9022 1179.72 11.056 1184.03 6.7442C1188.34 2.43237 1194.19 0.00693705 1200.28 0H1453.28C1459.38 0.00693441 1465.23 2.43237 1469.54 6.7442C1473.85 11.056 1476.28 16.9021 1476.28 23V204C1476.28 210.098 1473.85 215.944 1469.54 220.256C1465.23 224.568 1459.38 226.993 1453.28 227ZM1200.28 2C1194.72 2.00624 1189.38 4.22074 1185.44 8.15765C1181.5 12.0946 1179.29 17.4324 1179.28 23V204C1179.29 209.568 1181.5 214.905 1185.44 218.842C1189.38 222.779 1194.72 224.994 1200.28 225H1453.28C1458.85 224.994 1464.19 222.779 1468.13 218.842C1472.06 214.905 1474.28 209.568 1474.28 204V23C1474.28 17.4324 1472.06 12.0946 1468.13 8.15765C1464.19 4.22074 1458.85 2.00624 1453.28 2H1200.28Z" fill="#3F3D56"/>
<path d="M1356.12 117.559H1229.12C1228.06 117.559 1227.04 117.138 1226.29 116.388C1225.54 115.637 1225.12 114.62 1225.12 113.559C1225.12 112.498 1225.54 111.481 1226.29 110.731C1227.04 109.981 1228.06 109.559 1229.12 109.559H1356.12C1357.18 109.559 1358.2 109.981 1358.95 110.731C1359.7 111.481 1360.12 112.498 1360.12 113.559C1360.12 114.62 1359.7 115.637 1358.95 116.388C1358.2 117.138 1357.18 117.559 1356.12 117.559Z" fill="#CCCCCC"/>
<path d="M1251.61 92.3071C1266.43 92.3071 1278.43 80.2999 1278.43 65.4882C1278.43 50.6765 1266.43 38.6693 1251.61 38.6693C1236.8 38.6693 1224.8 50.6765 1224.8 65.4882C1224.8 80.2999 1236.8 92.3071 1251.61 92.3071Z" fill="#6C63FF"/>
<path d="M1231.12 193.947H1225.12V195.947H1231.12V193.947Z" fill="#3F3D56"/>
<path d="M1407.29 195.947H1394.7V193.947H1407.29V195.947ZM1382.12 195.947H1369.54V193.947H1382.12V195.947ZM1356.95 195.947H1344.37V193.947H1356.95V195.947ZM1331.79 195.947H1319.2V193.947H1331.79V195.947ZM1306.62 195.947H1294.04V193.947H1306.62V195.947ZM1281.45 195.947H1268.87V193.947H1281.45V195.947ZM1256.29 195.947H1243.7V193.947H1256.29V195.947Z" fill="#3F3D56"/>
<path d="M1425.87 193.947H1419.87V195.947H1425.87V193.947Z" fill="#3F3D56"/>
<path d="M1326.96 158.559H1321.96V192.559H1326.96V158.559Z" fill="#6C63FF"/>
<path d="M1377.96 158.559H1372.96V192.559H1377.96V158.559Z" fill="#6C63FF"/>
<path d="M1402.96 177.559H1397.96V192.559H1402.96V177.559Z" fill="#6C63FF"/>
<path d="M1351.96 143.559H1346.96V192.559H1351.96V143.559Z" fill="#6C63FF"/>
<path d="M867.957 226.559C871.271 226.559 873.957 223.873 873.957 220.559C873.957 217.245 871.271 214.559 867.957 214.559C864.643 214.559 861.957 217.245 861.957 220.559C861.957 223.873 864.643 226.559 867.957 226.559Z" fill="#6C63FF"/>
<path d="M883.957 197.559C887.271 197.559 889.957 194.873 889.957 191.559C889.957 188.245 887.271 185.559 883.957 185.559C880.643 185.559 877.957 188.245 877.957 191.559C877.957 194.873 880.643 197.559 883.957 197.559Z" fill="#6C63FF"/>
<path d="M1059.96 174.559C1063.27 174.559 1065.96 171.873 1065.96 168.559C1065.96 165.245 1063.27 162.559 1059.96 162.559C1056.64 162.559 1053.96 165.245 1053.96 168.559C1053.96 171.873 1056.64 174.559 1059.96 174.559Z" fill="#6C63FF"/>
<path d="M922.231 597.467L931.281 597.466L935.586 562.559L922.229 562.56L922.231 597.467Z" fill="#FFB6B6"/>
<path d="M921.913 606.907L949.742 606.906V606.555C949.742 603.682 948.601 600.927 946.569 598.895C944.538 596.864 941.783 595.723 938.91 595.723H938.909L933.826 591.866L924.341 595.723H921.912L921.913 606.907Z" fill="#2F2E41"/>
<path d="M990.231 597.467L999.281 597.466L1003.59 562.559L990.229 562.56L990.231 597.467Z" fill="#FFB6B6"/>
<path d="M989.913 606.907L1017.74 606.906V606.555C1017.74 603.682 1016.6 600.927 1014.57 598.895C1012.54 596.864 1009.78 595.723 1006.91 595.723L1001.83 591.866L992.341 595.723H989.912L989.913 606.907Z" fill="#2F2E41"/>
<path d="M921.879 313.506L937.94 311.205C943.371 320.288 945.302 344.464 945.302 344.464L961.02 381.822C962.061 382.529 962.897 383.498 963.444 384.631C963.992 385.764 964.231 387.021 964.138 388.276C964.046 389.531 963.624 390.739 962.916 391.779C962.207 392.82 961.238 393.655 960.104 394.201C958.97 394.747 957.713 394.985 956.458 394.891C955.203 394.796 953.995 394.373 952.956 393.664C951.917 392.954 951.083 391.983 950.538 390.849C949.993 389.715 949.757 388.457 949.853 387.202L924.046 343.718L921.879 313.506Z" fill="#FFB6B6"/>
<path d="M930.584 268.918C928.098 269.303 925.728 270.231 923.641 271.636C921.555 273.042 919.804 274.889 918.513 277.048C917.222 279.207 916.422 281.624 916.171 284.127C915.92 286.63 916.224 289.157 917.061 291.53L920.469 301.19C920.469 301.19 916.176 330.277 923.252 338.488L944.963 336.522C944.963 336.522 940.993 321.847 944.041 314.747C945.907 310.399 945.803 295.38 943.964 283.163C942.56 273.834 939.907 267.474 930.584 268.918Z" fill="#3F3D56"/>
<path d="M1005.46 356.559C1005.46 356.559 1022.19 372.88 1018.62 376.649C1015.04 380.419 1006.87 385.699 1014.46 386.559C1022.04 387.419 1025.19 389.283 1018.62 390.851C1012.04 392.419 1013.06 396.445 1013.06 396.445C1013.06 396.445 1022.96 443.559 1015.46 474.559C1015.46 474.559 1011.28 559.231 1008.66 565.825C1006.04 572.419 1005.04 568.419 1006.04 572.419C1007.04 576.419 1009.04 569.419 1007.04 576.419C1005.95 580.075 1005.09 583.796 1004.46 587.559L984.895 584.559C984.895 584.559 981.745 574.632 984.895 572.025C988.044 569.419 990.869 571.025 987.457 565.222C984.044 559.419 983.044 567.419 984.044 559.419C985.044 551.419 980.869 508.151 987.457 485.285L975.284 421.122L955.957 487.559C955.957 487.559 945.706 568.699 942.375 571.559C939.044 574.419 934.044 569.419 939.044 574.419C944.044 579.419 943.957 578.559 944.044 579.419C944.975 588.591 916.346 578.559 916.346 578.559C916.505 576.228 916.505 573.89 916.346 571.559C916.044 569.419 919.647 568.734 916.346 566.576C913.044 564.419 917.957 566.559 917.957 566.559C917.957 566.559 925.34 506.699 930.957 488.559L937.457 400.222C937.457 400.222 937.869 401.985 937.457 397.702C937.044 393.419 934.044 396.419 937.044 393.419C940.044 390.419 942.044 388.89 940.044 386.655C938.044 384.419 932.527 379.896 935.786 377.157C939.044 374.419 945.457 356.559 945.457 356.559L1007.96 357.059" fill="#2F2E41"/>
<path d="M981.958 257.385L970.689 244.696L952.882 246.675L941.481 262.63C935.413 264.025 930.11 267.692 926.663 272.878C923.217 278.064 921.889 284.374 922.953 290.509C927.377 315.984 942.412 340.692 937.447 353.261C929.911 372.341 929.452 380.123 947.491 377.448C965.53 374.773 1025.96 368.606 1014.25 356.889C1002.53 345.172 999.957 325.593 999.957 325.593L999.487 280.799C999.985 278.097 999.919 275.321 999.292 272.647C998.665 269.972 997.492 267.456 995.845 265.256C994.199 263.057 992.115 261.223 989.725 259.868C987.335 258.513 984.691 257.668 981.958 257.385Z" fill="#3F3D56"/>
<path d="M978.879 306.506L994.94 304.205C1000.37 313.288 1002.3 337.464 1002.3 337.464L1018.02 374.822C1019.06 375.529 1019.9 376.498 1020.44 377.631C1020.99 378.764 1021.23 380.021 1021.14 381.276C1021.05 382.531 1020.62 383.739 1019.92 384.779C1019.21 385.82 1018.24 386.655 1017.1 387.201C1015.97 387.747 1014.71 387.985 1013.46 387.891C1012.2 387.796 1011 387.373 1009.96 386.664C1008.92 385.954 1008.08 384.983 1007.54 383.849C1006.99 382.715 1006.76 381.457 1006.85 380.202L981.046 336.718L978.879 306.506Z" fill="#FFB6B6"/>
<path d="M987.584 261.918C985.098 262.303 982.728 263.231 980.641 264.636C978.555 266.042 976.804 267.889 975.513 270.048C974.222 272.207 973.422 274.624 973.171 277.127C972.92 279.63 973.224 282.157 974.061 284.53L977.469 294.19C977.469 294.19 973.176 323.277 980.252 331.488L1001.96 329.522C1001.96 329.522 997.993 314.847 1001.04 307.747C1002.91 303.399 1002.8 288.38 1000.96 276.163C999.56 266.834 996.907 260.474 987.584 261.918Z" fill="#3F3D56"/>
<path d="M956.888 243.603C968.775 243.603 978.412 233.967 978.412 222.08C978.412 210.193 968.775 200.557 956.888 200.557C945.001 200.557 935.365 210.193 935.365 222.08C935.365 233.967 945.001 243.603 956.888 243.603Z" fill="#FFB6B6"/>
<path d="M952.93 243.149C958.924 241.648 959.128 239.935 965.123 238.433C967.031 237.955 969.243 237.201 969.809 235.317C969.943 234.627 969.915 233.916 969.728 233.24C969.541 232.563 969.2 231.938 968.731 231.416C967.786 230.381 966.901 229.294 966.081 228.159C965.537 227.247 965.224 226.217 965.167 225.157C965.111 224.097 965.314 223.039 965.758 222.075C966.202 221.111 966.875 220.269 967.717 219.623C968.56 218.978 969.546 218.546 970.593 218.367C972.447 218.05 974.359 218.541 976.225 218.304C978.785 217.978 982.549 208.482 980.909 206.49C979.311 204.552 976.69 203.396 975.809 201.044C975.233 199.506 975.548 197.785 975.291 196.163C974.911 193.757 970.043 200.418 970.691 198.07C972.28 192.311 945.387 191.404 942.587 198.793C941.541 201.554 938.708 201.993 936.529 203.986C935.101 205.293 931.686 209.473 931.19 211.726C930.78 214.004 930.859 216.344 931.422 218.589C933.656 229.115 937.347 238.444 947.173 242.829" fill="#2F2E41"/>
<path d="M783.202 608.271L1172.93 608.579C1173.08 608.579 1173.24 608.549 1173.38 608.489C1173.53 608.429 1173.66 608.342 1173.77 608.231C1173.88 608.121 1173.97 607.989 1174.03 607.844C1174.09 607.7 1174.12 607.545 1174.12 607.388C1174.12 607.231 1174.09 607.076 1174.03 606.932C1173.97 606.787 1173.88 606.655 1173.77 606.545C1173.66 606.434 1173.53 606.347 1173.38 606.287C1173.24 606.227 1173.08 606.197 1172.93 606.197L783.202 605.89C783.045 605.89 782.89 605.92 782.745 605.98C782.6 606.039 782.469 606.127 782.358 606.238C782.247 606.348 782.159 606.48 782.099 606.624C782.039 606.769 782.008 606.924 782.008 607.081C782.008 607.237 782.039 607.392 782.099 607.537C782.159 607.682 782.247 607.813 782.358 607.924C782.469 608.034 782.6 608.122 782.745 608.182C782.89 608.241 783.045 608.272 783.202 608.271Z" fill="#CACACA"/>
</svg>
