<svg width="103" height="39" viewBox="0 0 103 39" fill="none" xmlns="http://www.w3.org/2000/svg">
<g filter="url(#filter0_i_2_119)">
<path d="M95 0H8C5.79086 0 4 1.79086 4 4V27C4 29.2091 5.79086 31 8 31H95C97.2091 31 99 29.2091 99 27V4C99 1.79086 97.2091 0 95 0Z" fill="#AACE9B"/>
</g>
<path d="M30.6846 10.3359H32.0542L35.5479 19.0298L39.0342 10.3359H40.4111L36.0752 21H35.0059L30.6846 10.3359ZM30.2378 10.3359H31.4463L31.644 16.8398V21H30.2378V10.3359ZM39.6421 10.3359H40.8506V21H39.4443V16.8398L39.6421 10.3359ZM52.2939 15.3311V16.0049C52.2939 16.8057 52.1938 17.5234 51.9937 18.1582C51.7935 18.793 51.5054 19.3325 51.1294 19.7769C50.7534 20.2212 50.3018 20.5605 49.7744 20.7949C49.252 21.0293 48.666 21.1465 48.0166 21.1465C47.3867 21.1465 46.8081 21.0293 46.2808 20.7949C45.7583 20.5605 45.3042 20.2212 44.9185 19.7769C44.5376 19.3325 44.2422 18.793 44.0322 18.1582C43.8223 17.5234 43.7173 16.8057 43.7173 16.0049V15.3311C43.7173 14.5303 43.8198 13.8149 44.0249 13.1851C44.2349 12.5503 44.5303 12.0107 44.9111 11.5664C45.292 11.1172 45.7437 10.7754 46.2661 10.541C46.7935 10.3066 47.3721 10.1895 48.002 10.1895C48.6514 10.1895 49.2373 10.3066 49.7598 10.541C50.2871 10.7754 50.7388 11.1172 51.1147 11.5664C51.4956 12.0107 51.7861 12.5503 51.9863 13.1851C52.1914 13.8149 52.2939 14.5303 52.2939 15.3311ZM50.895 16.0049V15.3164C50.895 14.6816 50.8291 14.1201 50.6973 13.6318C50.5703 13.1436 50.3823 12.7334 50.1333 12.4014C49.8843 12.0693 49.5791 11.8179 49.2178 11.647C48.8613 11.4761 48.4561 11.3906 48.002 11.3906C47.5625 11.3906 47.1646 11.4761 46.8081 11.647C46.4565 11.8179 46.1538 12.0693 45.8999 12.4014C45.6509 12.7334 45.458 13.1436 45.3213 13.6318C45.1846 14.1201 45.1162 14.6816 45.1162 15.3164V16.0049C45.1162 16.6445 45.1846 17.2109 45.3213 17.7041C45.458 18.1924 45.6533 18.605 45.9072 18.9419C46.166 19.2739 46.4712 19.5254 46.8228 19.6963C47.1792 19.8672 47.5771 19.9526 48.0166 19.9526C48.4756 19.9526 48.8833 19.8672 49.2397 19.6963C49.5962 19.5254 49.8965 19.2739 50.1406 18.9419C50.3896 18.605 50.5776 18.1924 50.7046 17.7041C50.8315 17.2109 50.895 16.6445 50.895 16.0049ZM55.1606 10.3359H58.6909C59.4917 10.3359 60.168 10.458 60.7197 10.7021C61.2764 10.9463 61.6987 11.3076 61.9868 11.7861C62.2798 12.2598 62.4263 12.8433 62.4263 13.5366C62.4263 14.0249 62.3262 14.4717 62.126 14.877C61.9307 15.2773 61.6475 15.6191 61.2764 15.9023C60.9102 16.1807 60.4707 16.3882 59.958 16.5249L59.5625 16.6787H56.2446L56.23 15.5288H58.7349C59.2427 15.5288 59.665 15.4409 60.002 15.2651C60.3389 15.0845 60.5928 14.8428 60.7637 14.54C60.9346 14.2373 61.02 13.9028 61.02 13.5366C61.02 13.1265 60.9395 12.7676 60.7783 12.46C60.6172 12.1523 60.3633 11.9155 60.0166 11.7495C59.6748 11.5786 59.2329 11.4932 58.6909 11.4932H56.5742V21H55.1606V10.3359ZM61.3936 21L58.8008 16.166L60.2729 16.1587L62.9023 20.9121V21H61.3936ZM71.9287 19.8501V21H66.2817V19.8501H71.9287ZM66.5674 10.3359V21H65.1538V10.3359H66.5674ZM71.1816 14.9209V16.0708H66.2817V14.9209H71.1816ZM71.8555 10.3359V11.4932H66.2817V10.3359H71.8555Z" fill="black"/>
<defs>
<filter id="filter0_i_2_119" x="4" y="0" width="95" height="35" filterUnits="userSpaceOnUse" color-interpolation-filters="sRGB">
<feFlood flood-opacity="0" result="BackgroundImageFix"/>
<feBlend mode="normal" in="SourceGraphic" in2="BackgroundImageFix" result="shape"/>
<feColorMatrix in="SourceAlpha" type="matrix" values="0 0 0 0 0 0 0 0 0 0 0 0 0 0 0 0 0 0 127 0" result="hardAlpha"/>
<feOffset dy="4"/>
<feGaussianBlur stdDeviation="2"/>
<feComposite in2="hardAlpha" operator="arithmetic" k2="-1" k3="1"/>
<feColorMatrix type="matrix" values="0 0 0 0 0 0 0 0 0 0 0 0 0 0 0 0 0 0 0.25 0"/>
<feBlend mode="normal" in2="shape" result="effect1_innerShadow_2_119"/>
</filter>
</defs>
</svg>
