<svg width="61" height="61" viewBox="0 0 61 61" fill="none" xmlns="http://www.w3.org/2000/svg">
<path d="M30 15C25.7565 15 21.6869 16.633 18.6863 19.5398C15.6857 22.4467 14 26.3891 14 30.5C14 34.6109 15.6857 38.5533 18.6863 41.4602C21.6869 44.367 25.7565 46 30 46C34.2435 46 38.3131 44.367 41.3137 41.4602C44.3143 38.5533 46 34.6109 46 30.5C46 26.3891 44.3143 22.4467 41.3137 19.5398C38.3131 16.633 34.2435 15 30 15ZM30 40.5663C27.2432 40.5663 24.5993 39.5054 22.65 37.617C20.7007 35.7285 19.6055 33.1673 19.6055 30.4966C19.6055 27.826 20.7007 25.2648 22.65 23.3763C24.5993 21.4879 27.2432 20.427 30 20.427C32.7568 20.427 35.4007 21.4879 37.35 23.3763C39.2993 25.2648 40.3945 27.826 40.3945 30.4966C40.3945 33.1673 39.2993 35.7285 37.35 37.617C35.4007 39.5054 32.7568 40.5663 30 40.5663Z" fill="white"/>
<path d="M59.3842 10.5049C58.6 8.48298 57.4017 6.64683 55.8659 5.11397C54.33 3.58111 52.4906 2.38531 50.4652 1.60313C48.0952 0.714836 45.5914 0.23452 43.0604 0.182634C39.7984 0.0405852 38.7652 0 30.4932 0C22.2212 0 21.161 -3.40184e-07 17.926 0.182634C15.397 0.231867 12.8949 0.71228 10.528 1.60313C8.50212 2.3844 6.66219 3.57988 5.12624 5.11285C3.5903 6.64583 2.39227 8.48245 1.60901 10.5049C0.719157 12.8711 0.239198 15.3712 0.189693 17.8982C0.044036 21.1518 0 22.1834 0 30.4459C0 38.705 -2.5238e-08 39.7569 0.189693 42.9936C0.240504 45.5234 0.718125 48.0194 1.60901 50.3903C2.39447 52.412 3.59366 54.2479 5.12998 55.7806C6.66629 57.3134 8.50594 58.5093 10.5314 59.292C12.8939 60.216 15.3969 60.7307 17.9328 60.814C21.1949 60.956 22.228 61 30.5 61C38.772 61 39.8322 61 43.0672 60.814C45.5979 60.7626 48.1016 60.2834 50.472 59.3969C52.4968 58.6129 54.3357 57.416 55.8714 55.8828C57.4071 54.3495 58.6058 52.5134 59.391 50.4917C60.2819 48.1243 60.7595 45.6282 60.8103 43.0984C60.956 39.8448 61 38.8133 61 30.5507C61 22.2882 61 21.2397 60.8103 18.003C60.7709 15.4403 60.2884 12.9036 59.3842 10.5049ZM55.2584 42.7433C55.2365 44.6924 54.8802 46.6234 54.2049 48.4523C53.6962 49.7675 52.9174 50.9619 51.9187 51.9585C50.9199 52.9551 49.7233 53.732 48.4057 54.2391C46.5942 54.9103 44.6808 55.2661 42.7488 55.291C39.5308 55.4398 38.6229 55.477 30.3713 55.477C22.1128 55.477 21.2694 55.477 17.9904 55.291C16.0593 55.2674 14.1468 54.9115 12.3369 54.2391C11.0147 53.7351 9.81326 52.9597 8.81021 51.9628C7.80717 50.966 7.02488 49.77 6.51394 48.4523C5.84814 46.6431 5.492 44.7348 5.46046 42.8076C5.3148 39.5945 5.28093 38.6881 5.28093 30.4493C5.28093 22.207 5.28093 21.3649 5.46046 18.0876C5.48236 16.1396 5.83868 14.2097 6.51394 12.382C7.54709 9.71346 9.6642 7.61316 12.3369 6.59176C14.1477 5.92257 16.0597 5.56685 17.9904 5.53992C21.2118 5.39449 22.1162 5.3539 30.3713 5.3539C38.6263 5.3539 39.4732 5.3539 42.7488 5.53992C44.681 5.56313 46.5947 5.91896 48.4057 6.59176C49.7232 7.1 50.9196 7.87765 51.9183 8.8748C52.917 9.87194 53.6959 11.0666 54.2049 12.382C54.8707 14.1912 55.2268 16.0995 55.2584 18.0267C55.404 21.2431 55.4413 22.1462 55.4413 30.3884C55.4413 38.6272 55.4413 39.5134 55.2956 42.7467H55.2584V42.7433Z" fill="white"/>
</svg>
