<svg width="60" height="61" viewBox="0 0 60 61" fill="none" xmlns="http://www.w3.org/2000/svg">
<path d="M56.6667 0H3.33333C2.44928 0 1.60143 0.357042 0.976311 0.992582C0.351189 1.62812 0 2.4901 0 3.38889V57.6111C0 58.5099 0.351189 59.3719 0.976311 60.0074C1.60143 60.643 2.44928 61 3.33333 61H56.6667C57.5507 61 58.3986 60.643 59.0237 60.0074C59.6488 59.3719 60 58.5099 60 57.6111V3.38889C60 2.4901 59.6488 1.62812 59.0237 0.992582C58.3986 0.357042 57.5507 0 56.6667 0ZM17.7967 51.9754H8.89V22.8648H17.7967V51.9754ZM13.3433 18.8897C11.9748 18.8897 10.6623 18.337 9.69466 17.3531C8.72697 16.3693 8.18333 15.035 8.18333 13.6437C8.18333 12.2523 8.72697 10.918 9.69466 9.93419C10.6623 8.95037 11.9748 8.39767 13.3433 8.39767C14.7118 8.39767 16.0243 8.95037 16.992 9.93419C17.9597 10.918 18.5033 12.2523 18.5033 13.6437C18.5033 15.035 17.9597 16.3693 16.992 17.3531C16.0243 18.337 14.7118 18.8897 13.3433 18.8897ZM51.1267 51.9754H42.23V37.82C42.23 34.4447 42.17 30.1035 37.6033 30.1035C32.97 30.1035 32.2667 33.7838 32.2667 37.5828V51.9788H23.3767V22.8682H31.91V26.8468H32.0333C33.2167 24.5593 36.1233 22.1464 40.4467 22.1464C49.46 22.1464 51.1233 28.1718 51.1233 36.0137V51.9754H51.1267Z" fill="white"/>
</svg>
