<svg width="31" height="31" viewBox="0 0 31 31" fill="none" xmlns="http://www.w3.org/2000/svg">
<path d="M28.0849 15.9275L16.4598 3.01086C15.9703 2.46578 15.03 2.46578 14.5404 3.01086L2.91543 15.9275C2.74811 16.113 2.63827 16.3431 2.59929 16.5898C2.56031 16.8366 2.59385 17.0893 2.69585 17.3174C2.90252 17.7837 3.36493 18.0833 3.87514 18.0833H6.45848V27.125C6.45848 27.4676 6.59456 27.7961 6.8368 28.0383C7.07903 28.2806 7.40757 28.4167 7.75014 28.4167H11.6251C11.9677 28.4167 12.2963 28.2806 12.5385 28.0383C12.7807 27.7961 12.9168 27.4676 12.9168 27.125V21.9583H18.0835V27.125C18.0835 27.4676 18.2196 27.7961 18.4618 28.0383C18.704 28.2806 19.0326 28.4167 19.3751 28.4167H23.2501C23.5927 28.4167 23.9213 28.2806 24.1635 28.0383C24.4057 27.7961 24.5418 27.4676 24.5418 27.125V18.0833H27.1251C27.3753 18.0844 27.6204 18.0126 27.8304 17.8768C28.0405 17.741 28.2066 17.5471 28.3083 17.3185C28.41 17.09 28.4431 16.8368 28.4034 16.5898C28.3637 16.3428 28.253 16.1127 28.0849 15.9275Z" fill="#AACE9B"/>
</svg>
