<svg width="31" height="31" viewBox="0 0 31 31" fill="none" xmlns="http://www.w3.org/2000/svg">
<path d="M25.8335 5.16663H5.16683C4.48169 5.16663 3.82461 5.4388 3.34014 5.92327C2.85567 6.40774 2.5835 7.06482 2.5835 7.74996V23.25C2.5835 23.9351 2.85567 24.5922 3.34014 25.0766C3.82461 25.5611 4.48169 25.8333 5.16683 25.8333H25.8335C26.5186 25.8333 27.1757 25.5611 27.6602 25.0766C28.1447 24.5922 28.4168 23.9351 28.4168 23.25V7.74996C28.4168 7.06482 28.1447 6.40774 27.6602 5.92327C27.1757 5.4388 26.5186 5.16663 25.8335 5.16663ZM25.8335 11.2375L15.5002 18.1272L5.16683 11.2375V8.13358L15.5002 15.022L25.8335 8.13358V11.2375Z" fill="#AACE9B"/>
</svg>
