<svg width="1512" height="544" viewBox="0 0 1512 544" fill="none" xmlns="http://www.w3.org/2000/svg">
<g clip-path="url(#clip0_2_12)">
<path fill-rule="evenodd" clip-rule="evenodd" d="M-1069.96 0L-1027.28 39.0595C-987.197 78.0267 -901.849 156.146 -816.083 149.819C-730.317 143.492 -638.954 52.9038 -553.857 65.3221C-468.759 77.7405 -384.747 193.35 -301.988 271.377C-219.23 349.403 -132.545 390.032 -45.7765 355.587C40.9922 321.142 133.023 211.809 219.791 177.364C306.56 142.919 393.245 183.548 479.011 177.221C564.777 170.894 654.803 117.797 740.235 120.842C825.667 123.888 911.683 183.262 997.115 186.308C1082.55 189.353 1172.57 136.256 1259.01 111.184C1345.44 86.1114 1433.46 89.2495 1518.23 111.04C1602.99 132.831 1689.67 173.46 1774.77 185.878C1859.87 198.297 1948.56 182.689 1990.32 174.794L2034.66 166.99L2018.62 616.875L1974.61 615.306C1933.19 613.83 1845.17 610.692 1759.74 607.646C1674.3 604.6 1586.28 601.462 1500.85 598.416C1415.42 595.371 1327.4 592.233 1241.97 589.187C1156.53 586.141 1068.51 583.003 983.081 579.957C897.649 576.912 809.628 573.774 724.196 570.728C638.764 567.682 550.743 564.544 465.311 561.498C379.879 558.453 291.858 555.315 206.426 552.269C120.994 549.223 32.9727 546.085 -52.4594 543.039C-137.891 539.994 -225.912 536.856 -311.344 533.81C-396.777 530.764 -484.797 527.626 -570.23 524.58C-655.662 521.535 -743.683 518.396 -829.115 515.351C-914.547 512.305 -1002.57 509.167 -1043.99 507.69L-1088 506.121L-1069.96 0Z" fill="#AACE9B"/>
</g>
<defs>
<clipPath id="clip0_2_12">
<rect width="1512" height="544" fill="white"/>
</clipPath>
</defs>
</svg>
