<svg width="111" height="39" viewBox="0 0 111 39" fill="none" xmlns="http://www.w3.org/2000/svg">
<g filter="url(#filter0_i_2_134)">
<path d="M103 0H8C5.79086 0 4 1.79086 4 4V27C4 29.2091 5.79086 31 8 31H103C105.209 31 107 29.2091 107 27V4C107 1.79086 105.209 0 103 0Z" fill="white"/>
<path d="M103 1H8C6.34315 1 5 2.34315 5 4V27C5 28.6569 6.34315 30 8 30H103C104.657 30 106 28.6569 106 27V4C106 2.34315 104.657 1 103 1Z" stroke="#AACE9B" stroke-width="2"/>
</g>
<path d="M32.2378 9.33594H35.7681C36.5688 9.33594 37.2451 9.45801 37.7969 9.70215C38.3535 9.94629 38.7759 10.3076 39.064 10.7861C39.3569 11.2598 39.5034 11.8433 39.5034 12.5366C39.5034 13.0249 39.4033 13.4717 39.2031 13.877C39.0078 14.2773 38.7246 14.6191 38.3535 14.9023C37.9873 15.1807 37.5479 15.3882 37.0352 15.5249L36.6396 15.6787H33.3218L33.3071 14.5288H35.812C36.3198 14.5288 36.7422 14.4409 37.0791 14.2651C37.416 14.0845 37.6699 13.8428 37.8408 13.54C38.0117 13.2373 38.0972 12.9028 38.0972 12.5366C38.0972 12.1265 38.0166 11.7676 37.8555 11.46C37.6943 11.1523 37.4404 10.9155 37.0938 10.7495C36.752 10.5786 36.3101 10.4932 35.7681 10.4932H33.6514V20H32.2378V9.33594ZM38.4707 20L35.8779 15.166L37.3501 15.1587L39.9795 19.9121V20H38.4707ZM49.0059 18.8501V20H43.3589V18.8501H49.0059ZM43.6445 9.33594V20H42.231V9.33594H43.6445ZM48.2588 13.9209V15.0708H43.3589V13.9209H48.2588ZM48.9326 9.33594V10.4932H43.3589V9.33594H48.9326ZM57.1899 17.3047C57.1899 17.0557 57.1509 16.8359 57.0728 16.6455C56.9995 16.4502 56.8677 16.2744 56.6772 16.1182C56.4917 15.9619 56.2329 15.813 55.9009 15.6714C55.5737 15.5298 55.1587 15.3857 54.6558 15.2393C54.1284 15.083 53.6523 14.9097 53.2275 14.7192C52.8027 14.5239 52.439 14.3018 52.1362 14.0527C51.8335 13.8037 51.6016 13.5181 51.4404 13.1958C51.2793 12.8735 51.1987 12.5049 51.1987 12.0898C51.1987 11.6748 51.2842 11.2915 51.4551 10.9399C51.626 10.5884 51.8701 10.2832 52.1875 10.0244C52.5098 9.76074 52.8931 9.55566 53.3374 9.40918C53.7817 9.2627 54.2773 9.18945 54.8242 9.18945C55.625 9.18945 56.3037 9.34326 56.8604 9.65088C57.4219 9.95361 57.8491 10.3516 58.1421 10.8447C58.4351 11.333 58.5815 11.8555 58.5815 12.4121H57.1753C57.1753 12.0117 57.0898 11.6577 56.9189 11.3501C56.748 11.0376 56.4893 10.7935 56.1426 10.6177C55.7959 10.437 55.3564 10.3467 54.8242 10.3467C54.3213 10.3467 53.9062 10.4224 53.5791 10.5737C53.252 10.7251 53.0078 10.9302 52.8467 11.189C52.6904 11.4478 52.6123 11.7432 52.6123 12.0752C52.6123 12.2998 52.6587 12.5049 52.7515 12.6904C52.8491 12.8711 52.998 13.0396 53.1982 13.1958C53.4033 13.3521 53.6621 13.4961 53.9746 13.6279C54.292 13.7598 54.6704 13.8867 55.1099 14.0088C55.7153 14.1797 56.2378 14.3701 56.6772 14.5801C57.1167 14.79 57.478 15.0269 57.7612 15.2905C58.0493 15.5493 58.2617 15.8447 58.3984 16.1768C58.54 16.5039 58.6108 16.875 58.6108 17.29C58.6108 17.7246 58.5229 18.1177 58.3472 18.4692C58.1714 18.8208 57.9199 19.1211 57.5928 19.3701C57.2656 19.6191 56.8726 19.812 56.4136 19.9487C55.9595 20.0806 55.4517 20.1465 54.8901 20.1465C54.397 20.1465 53.9111 20.0781 53.4326 19.9414C52.959 19.8047 52.5269 19.5996 52.1362 19.3262C51.7505 19.0527 51.4404 18.7158 51.2061 18.3154C50.9766 17.9102 50.8618 17.4414 50.8618 16.9092H52.2681C52.2681 17.2754 52.3389 17.5903 52.4805 17.854C52.6221 18.1128 52.8149 18.3276 53.0591 18.4985C53.3081 18.6694 53.5889 18.7964 53.9014 18.8794C54.2188 18.9575 54.5483 18.9966 54.8901 18.9966C55.3833 18.9966 55.8008 18.9282 56.1426 18.7915C56.4844 18.6548 56.7432 18.4595 56.9189 18.2056C57.0996 17.9517 57.1899 17.6514 57.1899 17.3047ZM67.9375 18.8501V20H62.2905V18.8501H67.9375ZM62.5762 9.33594V20H61.1626V9.33594H62.5762ZM67.1904 13.9209V15.0708H62.2905V13.9209H67.1904ZM67.8643 9.33594V10.4932H62.2905V9.33594H67.8643ZM74.5249 9.33594V20H73.1333V9.33594H74.5249ZM77.9526 9.33594V10.4932H69.7129V9.33594H77.9526Z" fill="black"/>
<defs>
<filter id="filter0_i_2_134" x="4" y="0" width="103" height="35" filterUnits="userSpaceOnUse" color-interpolation-filters="sRGB">
<feFlood flood-opacity="0" result="BackgroundImageFix"/>
<feBlend mode="normal" in="SourceGraphic" in2="BackgroundImageFix" result="shape"/>
<feColorMatrix in="SourceAlpha" type="matrix" values="0 0 0 0 0 0 0 0 0 0 0 0 0 0 0 0 0 0 127 0" result="hardAlpha"/>
<feOffset dy="4"/>
<feGaussianBlur stdDeviation="2"/>
<feComposite in2="hardAlpha" operator="arithmetic" k2="-1" k3="1"/>
<feColorMatrix type="matrix" values="0 0 0 0 0 0 0 0 0 0 0 0 0 0 0 0 0 0 0.25 0"/>
<feBlend mode="normal" in2="shape" result="effect1_innerShadow_2_134"/>
</filter>
</defs>
</svg>
