<svg width="275" height="53" viewBox="0 0 275 53" fill="none" xmlns="http://www.w3.org/2000/svg">
<path d="M248.5 2H26.5C12.969 2 2 12.969 2 26.5C2 40.031 12.969 51 26.5 51H248.5C262.031 51 273 40.031 273 26.5C273 12.969 262.031 2 248.5 2Z" fill="white" stroke="#AACE9B" stroke-width="4"/>
<path d="M73.8145 32.2368V34H65.6387V32.2368H73.8145ZM66.0654 17.6484V34H63.8979V17.6484H66.0654ZM87.8346 32.2368V34H79.1759V32.2368H87.8346ZM79.6139 17.6484V34H77.4464V17.6484H79.6139ZM86.6891 24.6787V26.4419H79.1759V24.6787H86.6891ZM87.7223 17.6484V19.4229H79.1759V17.6484H87.7223ZM97.7219 19.0972L92.3088 34H90.0964L96.3293 17.6484H97.7556L97.7219 19.0972ZM102.259 34L96.8347 19.0972L96.801 17.6484H98.2272L104.483 34H102.259ZM101.978 27.9468V29.7212H92.7917V27.9468H101.978ZM107.823 17.6484H113.236C114.464 17.6484 115.5 17.8356 116.346 18.21C117.2 18.5843 117.848 19.1383 118.289 19.8721C118.739 20.5983 118.963 21.493 118.963 22.5562C118.963 23.3049 118.81 23.9899 118.503 24.6113C118.203 25.2253 117.769 25.7493 117.2 26.1836C116.638 26.6104 115.965 26.9285 115.179 27.1382L114.572 27.374H109.485L109.462 25.6108H113.303C114.082 25.6108 114.729 25.4761 115.246 25.2065C115.763 24.9295 116.152 24.5589 116.414 24.0947C116.676 23.6305 116.807 23.1177 116.807 22.5562C116.807 21.9272 116.683 21.377 116.436 20.9053C116.189 20.4336 115.8 20.0705 115.268 19.8159C114.744 19.5539 114.067 19.4229 113.236 19.4229H109.99V34H107.823V17.6484ZM117.38 34L113.404 26.5879L115.661 26.5767L119.693 33.8652V34H117.38ZM135.724 17.6484V34H133.545L125.313 21.3882V34H123.145V17.6484H125.313L133.579 30.2939V17.6484H135.724ZM148.254 17.6484H150.355L155.712 30.979L161.057 17.6484H163.169L156.52 34H154.88L148.254 17.6484ZM147.569 17.6484H149.422L149.726 27.6211V34H147.569V17.6484ZM161.989 17.6484H163.842V34H161.686V27.6211L161.989 17.6484ZM181.389 25.3076V26.3408C181.389 27.5687 181.235 28.6693 180.928 29.6426C180.621 30.6159 180.18 31.4432 179.603 32.1245C179.027 32.8058 178.334 33.3262 177.526 33.6855C176.724 34.0449 175.826 34.2246 174.83 34.2246C173.864 34.2246 172.977 34.0449 172.169 33.6855C171.368 33.3262 170.671 32.8058 170.08 32.1245C169.496 31.4432 169.043 30.6159 168.721 29.6426C168.399 28.6693 168.238 27.5687 168.238 26.3408V25.3076C168.238 24.0798 168.395 22.9829 168.71 22.0171C169.032 21.0438 169.485 20.2165 170.069 19.5352C170.653 18.8464 171.345 18.3223 172.146 17.9629C172.955 17.6035 173.842 17.4238 174.808 17.4238C175.804 17.4238 176.702 17.6035 177.503 17.9629C178.312 18.3223 179.004 18.8464 179.581 19.5352C180.165 20.2165 180.61 21.0438 180.917 22.0171C181.232 22.9829 181.389 24.0798 181.389 25.3076ZM179.244 26.3408V25.2852C179.244 24.3118 179.143 23.4508 178.941 22.7021C178.746 21.9535 178.458 21.3245 178.076 20.8154C177.694 20.3063 177.226 19.9207 176.672 19.6587C176.126 19.3966 175.504 19.2656 174.808 19.2656C174.134 19.2656 173.524 19.3966 172.977 19.6587C172.438 19.9207 171.974 20.3063 171.585 20.8154C171.203 21.3245 170.907 21.9535 170.697 22.7021C170.488 23.4508 170.383 24.3118 170.383 25.2852V26.3408C170.383 27.3216 170.488 28.1901 170.697 28.9463C170.907 29.695 171.207 30.3276 171.596 30.8442C171.993 31.3534 172.461 31.7389 173 32.001C173.546 32.263 174.156 32.394 174.83 32.394C175.534 32.394 176.159 32.263 176.706 32.001C177.252 31.7389 177.713 31.3534 178.087 30.8442C178.469 30.3276 178.757 29.695 178.952 28.9463C179.147 28.1901 179.244 27.3216 179.244 26.3408ZM185.784 17.6484H191.198C192.425 17.6484 193.462 17.8356 194.308 18.21C195.162 18.5843 195.81 19.1383 196.251 19.8721C196.7 20.5983 196.925 21.493 196.925 22.5562C196.925 23.3049 196.772 23.9899 196.465 24.6113C196.165 25.2253 195.731 25.7493 195.162 26.1836C194.6 26.6104 193.927 26.9285 193.14 27.1382L192.534 27.374H187.447L187.424 25.6108H191.265C192.044 25.6108 192.691 25.4761 193.208 25.2065C193.724 24.9295 194.114 24.5589 194.376 24.0947C194.638 23.6305 194.769 23.1177 194.769 22.5562C194.769 21.9272 194.645 21.377 194.398 20.9053C194.151 20.4336 193.762 20.0705 193.23 19.8159C192.706 19.5539 192.029 19.4229 191.198 19.4229H187.952V34H185.784V17.6484ZM195.342 34L191.366 26.5879L193.623 26.5767L197.655 33.8652V34H195.342ZM211.496 32.2368V34H202.837V32.2368H211.496ZM203.275 17.6484V34H201.107V17.6484H203.275ZM210.35 24.6787V26.4419H202.837V24.6787H210.35ZM211.383 17.6484V19.4229H202.837V17.6484H211.383Z" fill="black"/>
</svg>
