<svg width="31" height="31" viewBox="0 0 31 31" fill="none" xmlns="http://www.w3.org/2000/svg">
<path d="M26.4622 22.1392L21.2116 17.3652C20.9634 17.1396 20.6373 17.0193 20.302 17.0297C19.9668 17.04 19.6487 17.1802 19.4149 17.4207L16.324 20.5995C15.58 20.4574 14.0842 19.9911 12.5445 18.4554C11.0049 16.9144 10.5386 15.4148 10.4004 14.6759L13.5766 11.5837C13.8174 11.3501 13.9578 11.0319 13.9682 10.6966C13.9785 10.3612 13.858 10.035 13.6321 9.78698L8.85942 4.53765C8.63343 4.28882 8.31934 4.13788 7.98386 4.1169C7.64838 4.09592 7.31794 4.20654 7.06271 4.42527L4.25979 6.82907C4.03648 7.05319 3.90319 7.35148 3.88521 7.66736C3.86583 7.99027 3.49642 15.6395 9.42775 21.5734C14.6022 26.7466 21.0837 27.125 22.8688 27.125C23.1297 27.125 23.2899 27.1173 23.3325 27.1147C23.6484 27.097 23.9465 26.9631 24.1695 26.7388L26.572 23.9346C26.7916 23.6802 26.9031 23.35 26.8826 23.0146C26.862 22.6791 26.7112 22.365 26.4622 22.1392Z" fill="#AACE9B"/>
</svg>
