<svg width="100" height="100" viewBox="0 0 100 100" fill="none" xmlns="http://www.w3.org/2000/svg">
<path d="M41.2248 7.05907C46.3489 2.9371 53.6511 2.93711 58.7752 7.05907L64.8168 11.9192C66.4869 13.2626 68.4431 14.2047 70.5346 14.6727L78.1013 16.366C84.5188 17.8022 89.0717 23.5113 89.0438 30.0875L89.0109 37.8413C89.0018 39.9846 89.485 42.1013 90.4231 44.0284L93.817 51.0001C96.6954 56.9129 95.0705 64.0321 89.9116 68.1104L83.829 72.9191C82.1476 74.2483 80.7939 75.9459 79.8721 77.8809L76.5375 84.881C73.7094 90.818 67.1303 93.9864 60.7252 92.4959L53.1731 90.7384C51.0856 90.2526 48.9144 90.2526 46.8269 90.7384L39.2748 92.4959C32.8697 93.9864 26.2906 90.818 23.4625 84.881L20.1278 77.8809C19.2061 75.9459 17.8524 74.2483 16.171 72.9191L10.0884 68.1104C4.92952 64.0321 3.30462 56.9129 6.18303 51.0001L9.57689 44.0284C10.515 42.1013 10.9982 39.9846 10.9891 37.8413L10.9562 30.0875C10.9283 23.5113 15.4812 17.8022 21.8987 16.366L29.4654 14.6727C31.5569 14.2047 33.5131 13.2626 35.1832 11.9192L41.2248 7.05907Z" fill="#AACE9B"/>
<path d="M50.0001 67.6472C59.7463 67.6472 67.6472 59.7463 67.6472 50.0001C67.6472 40.2539 59.7463 32.353 50.0001 32.353C40.2539 32.353 32.353 40.2539 32.353 50.0001C32.353 59.7463 40.2539 67.6472 50.0001 67.6472Z" fill="white"/>
</svg>
