<svg width="32" height="177" viewBox="0 0 32 177" fill="none" xmlns="http://www.w3.org/2000/svg">
<path d="M25.8335 5.16663H5.16683C4.48169 5.16663 3.82461 5.4388 3.34014 5.92327C2.85567 6.40774 2.5835 7.06482 2.5835 7.74996V23.25C2.5835 23.9351 2.85567 24.5922 3.34014 25.0766C3.82461 25.5611 4.48169 25.8333 5.16683 25.8333H25.8335C26.5186 25.8333 27.1757 25.5611 27.6602 25.0766C28.1447 24.5922 28.4168 23.9351 28.4168 23.25V7.74996C28.4168 7.06482 28.1447 6.40774 27.6602 5.92327C27.1757 5.4388 26.5186 5.16663 25.8335 5.16663ZM25.8335 11.2375L15.5002 18.1272L5.16683 11.2375V8.13358L15.5002 15.022L25.8335 8.13358V11.2375Z" fill="#AACE9B"/>
<path d="M27.4622 95.1392L22.2116 90.3652C21.9634 90.1396 21.6373 90.0193 21.302 90.0297C20.9668 90.04 20.6487 90.1802 20.4149 90.4207L17.324 93.5995C16.58 93.4574 15.0842 92.9911 13.5445 91.4554C12.0049 89.9144 11.5386 88.4148 11.4004 87.6759L14.5766 84.5837C14.8174 84.3501 14.9578 84.0319 14.9682 83.6966C14.9785 83.3612 14.858 83.035 14.6321 82.787L9.85942 77.5376C9.63343 77.2888 9.31934 77.1379 8.98386 77.1169C8.64838 77.0959 8.31794 77.2065 8.06271 77.4253L5.25979 79.8291C5.03648 80.0532 4.90319 80.3515 4.88521 80.6674C4.86583 80.9903 4.49642 88.6395 10.4278 94.5734C15.6022 99.7466 22.0837 100.125 23.8688 100.125C24.1297 100.125 24.2899 100.117 24.3325 100.115C24.6484 100.097 24.9465 99.9631 25.1695 99.7388L27.572 96.9346C27.7916 96.6802 27.9031 96.35 27.8826 96.0146C27.862 95.6791 27.7112 95.365 27.4622 95.1392Z" fill="#AACE9B"/>
<path d="M28.0849 161.928L16.4598 149.011C15.9703 148.466 15.03 148.466 14.5404 149.011L2.91543 161.928C2.74811 162.113 2.63827 162.343 2.59929 162.59C2.56031 162.837 2.59385 163.089 2.69585 163.317C2.90252 163.784 3.36493 164.083 3.87514 164.083H6.45848V173.125C6.45848 173.468 6.59456 173.796 6.8368 174.038C7.07903 174.281 7.40757 174.417 7.75014 174.417H11.6251C11.9677 174.417 12.2963 174.281 12.5385 174.038C12.7807 173.796 12.9168 173.468 12.9168 173.125V167.958H18.0835V173.125C18.0835 173.468 18.2196 173.796 18.4618 174.038C18.704 174.281 19.0326 174.417 19.3751 174.417H23.2501C23.5927 174.417 23.9213 174.281 24.1635 174.038C24.4057 173.796 24.5418 173.468 24.5418 173.125V164.083H27.1251C27.3753 164.084 27.6204 164.013 27.8304 163.877C28.0405 163.741 28.2066 163.547 28.3083 163.319C28.41 163.09 28.4431 162.837 28.4034 162.59C28.3637 162.343 28.253 162.113 28.0849 161.928Z" fill="#AACE9B"/>
</svg>
