<svg width="172" height="39" viewBox="0 0 172 39" fill="none" xmlns="http://www.w3.org/2000/svg">
<g filter="url(#filter0_i_2_111)">
<path d="M164 0H8C5.79086 0 4 1.79086 4 4V27C4 29.2091 5.79086 31 8 31H164C166.209 31 168 29.2091 168 27V4C168 1.79086 166.209 0 164 0Z" fill="#AACE9B"/>
</g>
<path d="M33.9214 17.3047C33.9214 17.0557 33.8823 16.8359 33.8042 16.6455C33.731 16.4502 33.5991 16.2744 33.4087 16.1182C33.2231 15.9619 32.9644 15.813 32.6323 15.6714C32.3052 15.5298 31.8901 15.3857 31.3872 15.2393C30.8599 15.083 30.3838 14.9097 29.959 14.7192C29.5342 14.5239 29.1704 14.3018 28.8677 14.0527C28.5649 13.8037 28.333 13.5181 28.1719 13.1958C28.0107 12.8735 27.9302 12.5049 27.9302 12.0898C27.9302 11.6748 28.0156 11.2915 28.1865 10.9399C28.3574 10.5884 28.6016 10.2832 28.9189 10.0244C29.2412 9.76074 29.6245 9.55566 30.0688 9.40918C30.5132 9.2627 31.0088 9.18945 31.5557 9.18945C32.3564 9.18945 33.0352 9.34326 33.5918 9.65088C34.1533 9.95361 34.5806 10.3516 34.8735 10.8447C35.1665 11.333 35.313 11.8555 35.313 12.4121H33.9067C33.9067 12.0117 33.8213 11.6577 33.6504 11.3501C33.4795 11.0376 33.2207 10.7935 32.874 10.6177C32.5273 10.437 32.0879 10.3467 31.5557 10.3467C31.0527 10.3467 30.6377 10.4224 30.3105 10.5737C29.9834 10.7251 29.7393 10.9302 29.5781 11.189C29.4219 11.4478 29.3438 11.7432 29.3438 12.0752C29.3438 12.2998 29.3901 12.5049 29.4829 12.6904C29.5806 12.8711 29.7295 13.0396 29.9297 13.1958C30.1348 13.3521 30.3936 13.4961 30.7061 13.6279C31.0234 13.7598 31.4019 13.8867 31.8413 14.0088C32.4468 14.1797 32.9692 14.3701 33.4087 14.5801C33.8481 14.79 34.2095 15.0269 34.4927 15.2905C34.7808 15.5493 34.9932 15.8447 35.1299 16.1768C35.2715 16.5039 35.3423 16.875 35.3423 17.29C35.3423 17.7246 35.2544 18.1177 35.0786 18.4692C34.9028 18.8208 34.6514 19.1211 34.3242 19.3701C33.9971 19.6191 33.604 19.812 33.145 19.9487C32.6909 20.0806 32.1831 20.1465 31.6216 20.1465C31.1284 20.1465 30.6426 20.0781 30.1641 19.9414C29.6904 19.8047 29.2583 19.5996 28.8677 19.3262C28.4819 19.0527 28.1719 18.7158 27.9375 18.3154C27.708 17.9102 27.5933 17.4414 27.5933 16.9092H28.9995C28.9995 17.2754 29.0703 17.5903 29.2119 17.854C29.3535 18.1128 29.5464 18.3276 29.7905 18.4985C30.0396 18.6694 30.3203 18.7964 30.6328 18.8794C30.9502 18.9575 31.2798 18.9966 31.6216 18.9966C32.1147 18.9966 32.5322 18.9282 32.874 18.7915C33.2158 18.6548 33.4746 18.4595 33.6504 18.2056C33.8311 17.9517 33.9214 17.6514 33.9214 17.3047ZM44.6689 18.8501V20H39.022V18.8501H44.6689ZM39.3076 9.33594V20H37.894V9.33594H39.3076ZM43.9219 13.9209V15.0708H39.022V13.9209H43.9219ZM44.5957 9.33594V10.4932H39.022V9.33594H44.5957ZM55.3726 9.33594V20H53.9517L48.583 11.7749V20H47.1694V9.33594H48.583L53.9736 17.583V9.33594H55.3726ZM61.5132 20H59.2866L59.3013 18.8501H61.5132C62.2749 18.8501 62.9097 18.6914 63.4175 18.374C63.9253 18.0518 64.3062 17.6025 64.5601 17.0264C64.8188 16.4453 64.9482 15.7666 64.9482 14.9902V14.3384C64.9482 13.728 64.875 13.186 64.7285 12.7124C64.582 12.2339 64.3672 11.8311 64.084 11.5039C63.8008 11.1719 63.4541 10.9204 63.0439 10.7495C62.6387 10.5786 62.1724 10.4932 61.645 10.4932H59.2427V9.33594H61.645C62.3433 9.33594 62.9805 9.45312 63.5566 9.6875C64.1328 9.91699 64.6284 10.2515 65.0435 10.6909C65.4634 11.1255 65.7856 11.6528 66.0103 12.2729C66.2349 12.8882 66.3472 13.5815 66.3472 14.353V14.9902C66.3472 15.7617 66.2349 16.4575 66.0103 17.0776C65.7856 17.6929 65.4609 18.2178 65.0361 18.6523C64.6162 19.0869 64.1084 19.4214 63.5127 19.6558C62.9219 19.8853 62.2554 20 61.5132 20ZM60.041 9.33594V20H58.6274V9.33594H60.041ZM74.1387 9.33594H75.5083L79.002 18.0298L82.4883 9.33594H83.8652L79.5293 20H78.46L74.1387 9.33594ZM73.6919 9.33594H74.9004L75.0981 15.8398V20H73.6919V9.33594ZM83.0962 9.33594H84.3047V20H82.8984V15.8398L83.0962 9.33594ZM94.3125 18.8501V20H88.6655V18.8501H94.3125ZM88.9512 9.33594V20H87.5376V9.33594H88.9512ZM93.5654 13.9209V15.0708H88.6655V13.9209H93.5654ZM94.2393 9.33594V10.4932H88.6655V9.33594H94.2393ZM102.497 17.3047C102.497 17.0557 102.458 16.8359 102.379 16.6455C102.306 16.4502 102.174 16.2744 101.984 16.1182C101.798 15.9619 101.54 15.813 101.208 15.6714C100.88 15.5298 100.465 15.3857 99.9624 15.2393C99.4351 15.083 98.959 14.9097 98.5342 14.7192C98.1094 14.5239 97.7456 14.3018 97.4429 14.0527C97.1401 13.8037 96.9082 13.5181 96.7471 13.1958C96.5859 12.8735 96.5054 12.5049 96.5054 12.0898C96.5054 11.6748 96.5908 11.2915 96.7617 10.9399C96.9326 10.5884 97.1768 10.2832 97.4941 10.0244C97.8164 9.76074 98.1997 9.55566 98.644 9.40918C99.0884 9.2627 99.584 9.18945 100.131 9.18945C100.932 9.18945 101.61 9.34326 102.167 9.65088C102.729 9.95361 103.156 10.3516 103.449 10.8447C103.742 11.333 103.888 11.8555 103.888 12.4121H102.482C102.482 12.0117 102.396 11.6577 102.226 11.3501C102.055 11.0376 101.796 10.7935 101.449 10.6177C101.103 10.437 100.663 10.3467 100.131 10.3467C99.6279 10.3467 99.2129 10.4224 98.8857 10.5737C98.5586 10.7251 98.3145 10.9302 98.1533 11.189C97.9971 11.4478 97.9189 11.7432 97.9189 12.0752C97.9189 12.2998 97.9653 12.5049 98.0581 12.6904C98.1558 12.8711 98.3047 13.0396 98.5049 13.1958C98.71 13.3521 98.9688 13.4961 99.2812 13.6279C99.5986 13.7598 99.9771 13.8867 100.417 14.0088C101.022 14.1797 101.544 14.3701 101.984 14.5801C102.423 14.79 102.785 15.0269 103.068 15.2905C103.356 15.5493 103.568 15.8447 103.705 16.1768C103.847 16.5039 103.917 16.875 103.917 17.29C103.917 17.7246 103.83 18.1177 103.654 18.4692C103.478 18.8208 103.227 19.1211 102.899 19.3701C102.572 19.6191 102.179 19.812 101.72 19.9487C101.266 20.0806 100.758 20.1465 100.197 20.1465C99.7036 20.1465 99.2178 20.0781 98.7393 19.9414C98.2656 19.8047 97.8335 19.5996 97.4429 19.3262C97.0571 19.0527 96.7471 18.7158 96.5127 18.3154C96.2832 17.9102 96.1685 17.4414 96.1685 16.9092H97.5747C97.5747 17.2754 97.6455 17.5903 97.7871 17.854C97.9287 18.1128 98.1216 18.3276 98.3657 18.4985C98.6147 18.6694 98.8955 18.7964 99.208 18.8794C99.5254 18.9575 99.855 18.9966 100.197 18.9966C100.69 18.9966 101.107 18.9282 101.449 18.7915C101.791 18.6548 102.05 18.4595 102.226 18.2056C102.406 17.9517 102.497 17.6514 102.497 17.3047ZM112.153 17.3047C112.153 17.0557 112.114 16.8359 112.036 16.6455C111.962 16.4502 111.831 16.2744 111.64 16.1182C111.455 15.9619 111.196 15.813 110.864 15.6714C110.537 15.5298 110.122 15.3857 109.619 15.2393C109.091 15.083 108.615 14.9097 108.19 14.7192C107.766 14.5239 107.402 14.3018 107.099 14.0527C106.796 13.8037 106.564 13.5181 106.403 13.1958C106.242 12.8735 106.162 12.5049 106.162 12.0898C106.162 11.6748 106.247 11.2915 106.418 10.9399C106.589 10.5884 106.833 10.2832 107.15 10.0244C107.473 9.76074 107.856 9.55566 108.3 9.40918C108.745 9.2627 109.24 9.18945 109.787 9.18945C110.588 9.18945 111.267 9.34326 111.823 9.65088C112.385 9.95361 112.812 10.3516 113.105 10.8447C113.398 11.333 113.544 11.8555 113.544 12.4121H112.138C112.138 12.0117 112.053 11.6577 111.882 11.3501C111.711 11.0376 111.452 10.7935 111.105 10.6177C110.759 10.437 110.319 10.3467 109.787 10.3467C109.284 10.3467 108.869 10.4224 108.542 10.5737C108.215 10.7251 107.971 10.9302 107.81 11.189C107.653 11.4478 107.575 11.7432 107.575 12.0752C107.575 12.2998 107.622 12.5049 107.714 12.6904C107.812 12.8711 107.961 13.0396 108.161 13.1958C108.366 13.3521 108.625 13.4961 108.938 13.6279C109.255 13.7598 109.633 13.8867 110.073 14.0088C110.678 14.1797 111.201 14.3701 111.64 14.5801C112.08 14.79 112.441 15.0269 112.724 15.2905C113.012 15.5493 113.225 15.8447 113.361 16.1768C113.503 16.5039 113.574 16.875 113.574 17.29C113.574 17.7246 113.486 18.1177 113.31 18.4692C113.134 18.8208 112.883 19.1211 112.556 19.3701C112.229 19.6191 111.835 19.812 111.376 19.9487C110.922 20.0806 110.415 20.1465 109.853 20.1465C109.36 20.1465 108.874 20.0781 108.396 19.9414C107.922 19.8047 107.49 19.5996 107.099 19.3262C106.713 19.0527 106.403 18.7158 106.169 18.3154C105.939 17.9102 105.825 17.4414 105.825 16.9092H107.231C107.231 17.2754 107.302 17.5903 107.443 17.854C107.585 18.1128 107.778 18.3276 108.022 18.4985C108.271 18.6694 108.552 18.7964 108.864 18.8794C109.182 18.9575 109.511 18.9966 109.853 18.9966C110.346 18.9966 110.764 18.9282 111.105 18.7915C111.447 18.6548 111.706 18.4595 111.882 18.2056C112.062 17.9517 112.153 17.6514 112.153 17.3047ZM120.073 10.2808L116.543 20H115.1L119.165 9.33594H120.095L120.073 10.2808ZM123.032 20L119.495 10.2808L119.473 9.33594H120.403L124.482 20H123.032ZM122.849 16.0522V17.2095H116.858V16.0522H122.849ZM134.454 14.6899V18.5938C134.322 18.7891 134.112 19.0088 133.824 19.2529C133.536 19.4922 133.138 19.7021 132.63 19.8828C132.127 20.0586 131.478 20.1465 130.682 20.1465C130.032 20.1465 129.434 20.0342 128.887 19.8096C128.345 19.5801 127.874 19.248 127.474 18.8135C127.078 18.374 126.771 17.8418 126.551 17.2168C126.336 16.5869 126.229 15.874 126.229 15.0781V14.2505C126.229 13.4546 126.321 12.7441 126.507 12.1191C126.697 11.4941 126.976 10.9644 127.342 10.5298C127.708 10.0903 128.157 9.7583 128.689 9.53369C129.222 9.3042 129.832 9.18945 130.521 9.18945C131.336 9.18945 132.017 9.33105 132.564 9.61426C133.116 9.89258 133.545 10.2783 133.853 10.7715C134.166 11.2646 134.366 11.8262 134.454 12.4561H133.04C132.977 12.0703 132.85 11.7188 132.659 11.4014C132.474 11.084 132.208 10.8301 131.861 10.6396C131.514 10.4443 131.067 10.3467 130.521 10.3467C130.027 10.3467 129.6 10.437 129.239 10.6177C128.877 10.7983 128.58 11.0571 128.345 11.394C128.111 11.731 127.935 12.1387 127.818 12.6172C127.706 13.0957 127.649 13.6353 127.649 14.2358V15.0781C127.649 15.6934 127.72 16.2427 127.862 16.7261C128.008 17.2095 128.216 17.6221 128.484 17.9639C128.753 18.3008 129.073 18.5571 129.444 18.7329C129.82 18.9087 130.235 18.9966 130.689 18.9966C131.192 18.9966 131.6 18.9551 131.912 18.8721C132.225 18.7842 132.469 18.6816 132.645 18.5645C132.82 18.4424 132.955 18.3276 133.047 18.2202V15.8325H130.579V14.6899H134.454ZM144.322 18.8501V20H138.675V18.8501H144.322ZM138.961 9.33594V20H137.547V9.33594H138.961ZM143.575 13.9209V15.0708H138.675V13.9209H143.575ZM144.249 9.33594V10.4932H138.675V9.33594H144.249Z" fill="black"/>
<defs>
<filter id="filter0_i_2_111" x="4" y="0" width="164" height="35" filterUnits="userSpaceOnUse" color-interpolation-filters="sRGB">
<feFlood flood-opacity="0" result="BackgroundImageFix"/>
<feBlend mode="normal" in="SourceGraphic" in2="BackgroundImageFix" result="shape"/>
<feColorMatrix in="SourceAlpha" type="matrix" values="0 0 0 0 0 0 0 0 0 0 0 0 0 0 0 0 0 0 127 0" result="hardAlpha"/>
<feOffset dy="4"/>
<feGaussianBlur stdDeviation="2"/>
<feComposite in2="hardAlpha" operator="arithmetic" k2="-1" k3="1"/>
<feColorMatrix type="matrix" values="0 0 0 0 0 0 0 0 0 0 0 0 0 0 0 0 0 0 0.25 0"/>
<feBlend mode="normal" in2="shape" result="effect1_innerShadow_2_111"/>
</filter>
</defs>
</svg>
