<svg width="93" height="82" viewBox="0 0 93 82" fill="none" xmlns="http://www.w3.org/2000/svg">
<path d="M36.5375 43.0266C47.2844 43.0266 56.0242 34.2868 56.0242 23.5399C56.0242 12.793 47.2844 4.05322 36.5375 4.05322C25.7906 4.05322 17.0508 12.793 17.0508 23.5399C17.0508 34.2868 25.7906 43.0266 36.5375 43.0266ZM43.845 47.8982H29.23C13.1097 47.8982 0 61.0079 0 77.1282V81.9999H73.075V77.1282C73.075 61.0079 59.9654 47.8982 43.845 47.8982Z" fill="#AACE9B"/>
<path d="M71.146 38.3887C74.1131 33.3324 75.3944 27.4631 74.8046 21.6302C73.9326 12.9391 69.0804 5.25653 61.1494 0L55.7662 8.1162C61.2176 11.731 64.5352 16.8803 65.11 22.6045C65.3751 25.265 65.0439 27.951 64.1405 30.4673C63.2371 32.9837 61.7843 35.267 59.8876 37.1513L54.0806 42.9584L61.9629 45.2724C82.5798 51.3133 82.8185 72.0471 82.8185 72.2566H92.5619C92.5619 63.5412 87.9046 46.5098 71.146 38.3887Z" fill="#AACE9B"/>
</svg>
