<svg width="66" height="54" viewBox="0 0 66 54" fill="none" xmlns="http://www.w3.org/2000/svg">
<path d="M59.2193 13.4577C59.263 14.0497 59.263 14.6384 59.263 15.227C59.263 33.2417 45.6512 54 20.7753 54C13.1113 54 5.99145 51.7638 0 47.8801C1.08813 48.0053 2.13597 48.0492 3.26776 48.0492C9.35658 48.0641 15.273 46.0131 20.0633 42.227C17.2403 42.1756 14.5037 41.2374 12.2356 39.5434C9.96751 37.8494 8.28118 35.4843 7.41207 32.7782C8.24832 32.9034 9.08793 32.988 9.96784 32.988C11.1802 32.988 12.3993 32.8188 13.5311 32.5245C10.4674 31.9014 7.71256 30.2286 5.73493 27.7906C3.7573 25.3525 2.679 22.2998 2.68339 19.1514V18.9822C4.48687 19.9937 6.57918 20.6264 8.79575 20.7109C6.93883 19.468 5.41622 17.7813 4.36375 15.8014C3.31128 13.8216 2.76169 11.6101 2.76399 9.36424C2.76399 6.83373 3.43232 4.51297 4.60442 2.48991C8.00362 6.70186 12.2432 10.1476 17.0486 12.604C21.8539 15.0604 27.1179 16.4727 32.4996 16.7494C32.2914 15.7345 32.1637 14.6824 32.1637 13.6269C32.1629 11.8371 32.5122 10.0647 33.1917 8.41104C33.8712 6.75735 34.8676 5.25478 36.124 3.98923C37.3803 2.72369 38.872 1.71997 40.5136 1.03547C42.1553 0.350975 43.9148 -0.000887638 45.6915 1.68158e-06C49.5873 1.68158e-06 53.1036 1.64416 55.5754 4.30322C58.604 3.71328 61.5082 2.5996 64.1596 1.01153C63.1501 4.16051 61.0354 6.8307 58.2118 8.52186C60.8978 8.21326 63.5229 7.50172 66 6.41085C64.1499 9.12776 61.8574 11.5103 59.2193 13.4577Z" fill="white"/>
</svg>
